<mxfile host="app.diagrams.net" agent="Mozilla/5.0 (Windows NT 10.0; Win64; x64) AppleWebKit/537.36 (KHTML, like Gecko) Chrome/131.0.0.0 Safari/537.36" version="24.8.6" pages="2">
  <diagram id="Ht1M8jgEwFfnCIfOTk4-" name="Page-1">
    <mxGraphModel dx="1221" dy="765" grid="1" gridSize="10" guides="1" tooltips="1" connect="1" arrows="1" fold="1" page="1" pageScale="1" pageWidth="1169" pageHeight="827" math="0" shadow="0">
      <root>
        <mxCell id="0" />
        <mxCell id="1" parent="0" />
        <mxCell id="-QjtrjUzRDEMRZ5MF8oH-14" value="Amazon SageMaker" style="whiteSpace=wrap;html=1;fillColor=none;fontSize=14;fontColor=#000000;dashed=0;fontStyle=0;align=center;verticalAlign=top;strokeColor=#D86613;gradientColor=none;spacingLeft=0;labelPosition=center;verticalLabelPosition=bottom;container=1;pointerEvents=0;collapsible=0;recursiveResize=0;" parent="1" vertex="1">
          <mxGeometry x="872.5" y="174.5" width="232" height="160" as="geometry" />
        </mxCell>
        <mxCell id="SCVMTBWpLvtzJIhz15lM-34" value="" style="whiteSpace=wrap;html=1;fillColor=none;fontSize=14;fontColor=#000000;dashed=0;fontStyle=0;align=center;verticalAlign=top;strokeColor=#CCCCCC;gradientColor=none;spacingLeft=0;labelPosition=center;verticalLabelPosition=bottom;" parent="1" vertex="1">
          <mxGeometry x="882.5" y="257.5" width="210" height="70" as="geometry" />
        </mxCell>
        <mxCell id="-QjtrjUzRDEMRZ5MF8oH-1" value="" style="outlineConnect=0;fontColor=#232F3E;gradientColor=none;fillColor=#277116;strokeColor=none;dashed=0;verticalLabelPosition=bottom;verticalAlign=top;align=center;html=1;fontSize=12;fontStyle=0;aspect=fixed;pointerEvents=1;shape=mxgraph.aws4.door_lock;" parent="1" vertex="1">
          <mxGeometry x="64.5" y="260.5" width="78" height="78" as="geometry" />
        </mxCell>
        <mxCell id="-QjtrjUzRDEMRZ5MF8oH-2" value="" style="outlineConnect=0;fontColor=#232F3E;gradientColor=none;fillColor=#277116;strokeColor=none;dashed=0;verticalLabelPosition=bottom;verticalAlign=top;align=center;html=1;fontSize=12;fontStyle=0;aspect=fixed;pointerEvents=1;shape=mxgraph.aws4.car;" parent="1" vertex="1">
          <mxGeometry x="64.5" y="356" width="78" height="78" as="geometry" />
        </mxCell>
        <mxCell id="-QjtrjUzRDEMRZ5MF8oH-3" value="" style="outlineConnect=0;fontColor=#232F3E;gradientColor=none;fillColor=#277116;strokeColor=none;dashed=0;verticalLabelPosition=bottom;verticalAlign=top;align=center;html=1;fontSize=12;fontStyle=0;aspect=fixed;pointerEvents=1;shape=mxgraph.aws4.camera;" parent="1" vertex="1">
          <mxGeometry x="64.5" y="451.5" width="78" height="78" as="geometry" />
        </mxCell>
        <mxCell id="-QjtrjUzRDEMRZ5MF8oH-4" value="" style="outlineConnect=0;fontColor=#232F3E;gradientColor=none;fillColor=#277116;strokeColor=none;dashed=0;verticalLabelPosition=bottom;verticalAlign=top;align=center;html=1;fontSize=12;fontStyle=0;aspect=fixed;pointerEvents=1;shape=mxgraph.aws4.utility;" parent="1" vertex="1">
          <mxGeometry x="165.5" y="306.5" width="78" height="78" as="geometry" />
        </mxCell>
        <mxCell id="-QjtrjUzRDEMRZ5MF8oH-5" value="" style="outlineConnect=0;fontColor=#232F3E;gradientColor=none;fillColor=#277116;strokeColor=none;dashed=0;verticalLabelPosition=bottom;verticalAlign=top;align=center;html=1;fontSize=12;fontStyle=0;aspect=fixed;pointerEvents=1;shape=mxgraph.aws4.coffee_pot;" parent="1" vertex="1">
          <mxGeometry x="166.5" y="410.5" width="78" height="78" as="geometry" />
        </mxCell>
        <mxCell id="-QjtrjUzRDEMRZ5MF8oH-6" value="" style="outlineConnect=0;fontColor=#232F3E;gradientColor=none;fillColor=#277116;strokeColor=none;dashed=0;verticalLabelPosition=bottom;verticalAlign=top;align=center;html=1;fontSize=12;fontStyle=0;aspect=fixed;pointerEvents=1;shape=mxgraph.aws4.lightbulb;" parent="1" vertex="1">
          <mxGeometry x="263.5" y="260.5" width="78" height="78" as="geometry" />
        </mxCell>
        <mxCell id="-QjtrjUzRDEMRZ5MF8oH-7" value="" style="outlineConnect=0;fontColor=#232F3E;gradientColor=none;fillColor=#277116;strokeColor=none;dashed=0;verticalLabelPosition=bottom;verticalAlign=top;align=center;html=1;fontSize=12;fontStyle=0;aspect=fixed;pointerEvents=1;shape=mxgraph.aws4.house;" parent="1" vertex="1">
          <mxGeometry x="261.5" y="356" width="78" height="78" as="geometry" />
        </mxCell>
        <mxCell id="-QjtrjUzRDEMRZ5MF8oH-8" value="" style="outlineConnect=0;fontColor=#232F3E;gradientColor=none;fillColor=#277116;strokeColor=none;dashed=0;verticalLabelPosition=bottom;verticalAlign=top;align=center;html=1;fontSize=12;fontStyle=0;aspect=fixed;pointerEvents=1;shape=mxgraph.aws4.thermostat;" parent="1" vertex="1">
          <mxGeometry x="261.5" y="451.5" width="78" height="78" as="geometry" />
        </mxCell>
        <mxCell id="-QjtrjUzRDEMRZ5MF8oH-9" value="1" style="rounded=1;whiteSpace=wrap;html=1;fillColor=#007CBD;strokeColor=none;fontColor=#FFFFFF;fontStyle=1;fontSize=22;" parent="1" vertex="1">
          <mxGeometry x="223.5" y="211.5" width="40" height="38" as="geometry" />
        </mxCell>
        <mxCell id="-QjtrjUzRDEMRZ5MF8oH-10" value="ML Model Executable" style="outlineConnect=0;fontColor=#232F3E;gradientColor=none;fillColor=#116D5B;strokeColor=none;dashed=0;verticalLabelPosition=bottom;verticalAlign=top;align=center;html=1;fontSize=12;fontStyle=0;aspect=fixed;pointerEvents=1;shape=mxgraph.aws4.sagemaker_model;" parent="1" vertex="1">
          <mxGeometry x="473.5" y="244.5" width="78" height="78" as="geometry" />
        </mxCell>
        <mxCell id="-QjtrjUzRDEMRZ5MF8oH-11" value="AWS Lambda Function" style="outlineConnect=0;fontColor=#232F3E;gradientColor=none;fillColor=#277116;strokeColor=none;dashed=0;verticalLabelPosition=bottom;verticalAlign=top;align=center;html=1;fontSize=12;fontStyle=0;aspect=fixed;pointerEvents=1;shape=mxgraph.aws4.lambda_function;" parent="1" vertex="1">
          <mxGeometry x="473.5" y="349.5" width="78" height="78" as="geometry" />
        </mxCell>
        <mxCell id="-QjtrjUzRDEMRZ5MF8oH-12" value="AWS IoT Greengrass Core" style="outlineConnect=0;fontColor=#232F3E;gradientColor=#60A337;gradientDirection=north;fillColor=#277116;strokeColor=#ffffff;dashed=0;verticalLabelPosition=bottom;verticalAlign=top;align=center;html=1;fontSize=12;fontStyle=0;aspect=fixed;shape=mxgraph.aws4.resourceIcon;resIcon=mxgraph.aws4.greengrass;" parent="1" vertex="1">
          <mxGeometry x="473.5" y="457.5" width="78" height="78" as="geometry" />
        </mxCell>
        <mxCell id="-QjtrjUzRDEMRZ5MF8oH-16" value="AWS IoT Core" style="outlineConnect=0;fontColor=#232F3E;gradientColor=#60A337;gradientDirection=north;fillColor=#277116;strokeColor=#ffffff;dashed=0;verticalLabelPosition=bottom;verticalAlign=top;align=center;html=1;fontSize=12;fontStyle=0;aspect=fixed;shape=mxgraph.aws4.resourceIcon;resIcon=mxgraph.aws4.internet_of_things;" parent="1" vertex="1">
          <mxGeometry x="745.5" y="451.5" width="78" height="78" as="geometry" />
        </mxCell>
        <mxCell id="-QjtrjUzRDEMRZ5MF8oH-17" value="AWS IoT Analytics" style="outlineConnect=0;fontColor=#232F3E;gradientColor=#60A337;gradientDirection=north;fillColor=#277116;strokeColor=#ffffff;dashed=0;verticalLabelPosition=bottom;verticalAlign=top;align=center;html=1;fontSize=12;fontStyle=0;aspect=fixed;shape=mxgraph.aws4.resourceIcon;resIcon=mxgraph.aws4.iot_analytics;" parent="1" vertex="1">
          <mxGeometry x="949.5" y="451.5" width="78" height="78" as="geometry" />
        </mxCell>
        <mxCell id="-QjtrjUzRDEMRZ5MF8oH-18" value="ML Model Executable" style="outlineConnect=0;fontColor=#232F3E;gradientColor=none;fillColor=#116D5B;strokeColor=none;dashed=0;verticalLabelPosition=bottom;verticalAlign=top;align=center;html=1;fontSize=12;fontStyle=0;aspect=fixed;pointerEvents=1;shape=mxgraph.aws4.sagemaker_model;" parent="1" vertex="1">
          <mxGeometry x="136.5" y="691.5" width="78" height="78" as="geometry" />
        </mxCell>
        <mxCell id="-QjtrjUzRDEMRZ5MF8oH-19" value="AWS IoT Greengrass Core" style="outlineConnect=0;fontColor=#232F3E;gradientColor=#60A337;gradientDirection=north;fillColor=#277116;strokeColor=#ffffff;dashed=0;verticalLabelPosition=bottom;verticalAlign=top;align=center;html=1;fontSize=12;fontStyle=0;aspect=fixed;shape=mxgraph.aws4.resourceIcon;resIcon=mxgraph.aws4.iot_core;" parent="1" vertex="1">
          <mxGeometry x="137.5" y="796" width="78" height="78" as="geometry" />
        </mxCell>
        <mxCell id="-QjtrjUzRDEMRZ5MF8oH-20" value="Video Camera" style="outlineConnect=0;fontColor=#232F3E;gradientColor=none;fillColor=#277116;strokeColor=none;dashed=0;verticalLabelPosition=bottom;verticalAlign=top;align=center;html=1;fontSize=12;fontStyle=0;aspect=fixed;pointerEvents=1;shape=mxgraph.aws4.camera;" parent="1" vertex="1">
          <mxGeometry x="137.5" y="903.5" width="78" height="78" as="geometry" />
        </mxCell>
        <mxCell id="-QjtrjUzRDEMRZ5MF8oH-21" value="AWS IoT Core" style="outlineConnect=0;fontColor=#232F3E;gradientColor=#60A337;gradientDirection=north;fillColor=#277116;strokeColor=#ffffff;dashed=0;verticalLabelPosition=bottom;verticalAlign=top;align=center;html=1;fontSize=12;fontStyle=0;aspect=fixed;shape=mxgraph.aws4.resourceIcon;resIcon=mxgraph.aws4.internet_of_things;" parent="1" vertex="1">
          <mxGeometry x="352.5" y="711.5" width="78" height="78" as="geometry" />
        </mxCell>
        <mxCell id="-QjtrjUzRDEMRZ5MF8oH-22" value="AWS IoT Analytics" style="outlineConnect=0;fontColor=#232F3E;gradientColor=#60A337;gradientDirection=north;fillColor=#277116;strokeColor=#ffffff;dashed=0;verticalLabelPosition=bottom;verticalAlign=top;align=center;html=1;fontSize=12;fontStyle=0;aspect=fixed;shape=mxgraph.aws4.resourceIcon;resIcon=mxgraph.aws4.iot_analytics;" parent="1" vertex="1">
          <mxGeometry x="532.5" y="708.5" width="78" height="78" as="geometry" />
        </mxCell>
        <mxCell id="-QjtrjUzRDEMRZ5MF8oH-23" value="AWS IoT Events" style="outlineConnect=0;fontColor=#232F3E;gradientColor=#60A337;gradientDirection=north;fillColor=#277116;strokeColor=#ffffff;dashed=0;verticalLabelPosition=bottom;verticalAlign=top;align=center;html=1;fontSize=12;fontStyle=0;aspect=fixed;shape=mxgraph.aws4.resourceIcon;resIcon=mxgraph.aws4.iot_events;" parent="1" vertex="1">
          <mxGeometry x="721.5" y="708.5" width="78" height="78" as="geometry" />
        </mxCell>
        <mxCell id="-QjtrjUzRDEMRZ5MF8oH-24" value="Amazon SNS" style="outlineConnect=0;fontColor=#232F3E;gradientColor=#F34482;gradientDirection=north;fillColor=#BC1356;strokeColor=#ffffff;dashed=0;verticalLabelPosition=bottom;verticalAlign=top;align=center;html=1;fontSize=12;fontStyle=0;aspect=fixed;shape=mxgraph.aws4.resourceIcon;resIcon=mxgraph.aws4.sns;" parent="1" vertex="1">
          <mxGeometry x="902.5" y="708.5" width="78" height="78" as="geometry" />
        </mxCell>
        <mxCell id="-QjtrjUzRDEMRZ5MF8oH-25" value="Amazon Kinesis&lt;br&gt;Video Streams&lt;br&gt;" style="outlineConnect=0;fontColor=#232F3E;gradientColor=#945DF2;gradientDirection=north;fillColor=#5A30B5;strokeColor=#ffffff;dashed=0;verticalLabelPosition=bottom;verticalAlign=top;align=center;html=1;fontSize=12;fontStyle=0;aspect=fixed;shape=mxgraph.aws4.resourceIcon;resIcon=mxgraph.aws4.kinesis_video_streams;" parent="1" vertex="1">
          <mxGeometry x="484.5" y="874.5" width="78" height="78" as="geometry" />
        </mxCell>
        <mxCell id="-QjtrjUzRDEMRZ5MF8oH-26" value="Mobile Application" style="outlineConnect=0;fontColor=#232F3E;gradientColor=#F54749;gradientDirection=north;fillColor=#C7131F;strokeColor=#ffffff;dashed=0;verticalLabelPosition=bottom;verticalAlign=top;align=center;html=1;fontSize=12;fontStyle=0;aspect=fixed;shape=mxgraph.aws4.resourceIcon;resIcon=mxgraph.aws4.mobile;" parent="1" vertex="1">
          <mxGeometry x="785.5" y="873.5" width="78" height="78" as="geometry" />
        </mxCell>
        <mxCell id="-QjtrjUzRDEMRZ5MF8oH-27" value="2" style="rounded=1;whiteSpace=wrap;html=1;fillColor=#007CBD;strokeColor=none;fontColor=#FFFFFF;fontStyle=1;fontSize=22;" parent="1" vertex="1">
          <mxGeometry x="483.5" y="164.5" width="40" height="38" as="geometry" />
        </mxCell>
        <mxCell id="-QjtrjUzRDEMRZ5MF8oH-28" value="3" style="rounded=1;whiteSpace=wrap;html=1;fillColor=#007CBD;strokeColor=none;fontColor=#FFFFFF;fontStyle=1;fontSize=22;" parent="1" vertex="1">
          <mxGeometry x="823.5" y="175.5" width="40" height="38" as="geometry" />
        </mxCell>
        <mxCell id="-QjtrjUzRDEMRZ5MF8oH-29" value="4" style="rounded=1;whiteSpace=wrap;html=1;fillColor=#007CBD;strokeColor=none;fontColor=#FFFFFF;fontStyle=1;fontSize=22;" parent="1" vertex="1">
          <mxGeometry x="633.5" y="399.5" width="40" height="38" as="geometry" />
        </mxCell>
        <mxCell id="-QjtrjUzRDEMRZ5MF8oH-30" value="5" style="rounded=1;whiteSpace=wrap;html=1;fillColor=#007CBD;strokeColor=none;fontColor=#FFFFFF;fontStyle=1;fontSize=22;" parent="1" vertex="1">
          <mxGeometry x="878.5" y="399.5" width="40" height="38" as="geometry" />
        </mxCell>
        <mxCell id="-QjtrjUzRDEMRZ5MF8oH-31" value="6" style="rounded=1;whiteSpace=wrap;html=1;fillColor=#007CBD;strokeColor=none;fontColor=#FFFFFF;fontStyle=1;fontSize=22;" parent="1" vertex="1">
          <mxGeometry x="136.5" y="608.5" width="40" height="38" as="geometry" />
        </mxCell>
        <mxCell id="-QjtrjUzRDEMRZ5MF8oH-32" value="7" style="rounded=1;whiteSpace=wrap;html=1;fillColor=#007CBD;strokeColor=none;fontColor=#FFFFFF;fontStyle=1;fontSize=22;" parent="1" vertex="1">
          <mxGeometry x="462.5" y="666.5" width="40" height="38" as="geometry" />
        </mxCell>
        <mxCell id="-QjtrjUzRDEMRZ5MF8oH-33" value="8" style="rounded=1;whiteSpace=wrap;html=1;fillColor=#007CBD;strokeColor=none;fontColor=#FFFFFF;fontStyle=1;fontSize=22;" parent="1" vertex="1">
          <mxGeometry x="832.5" y="666.5" width="40" height="38" as="geometry" />
        </mxCell>
        <mxCell id="-QjtrjUzRDEMRZ5MF8oH-34" value="9" style="rounded=1;whiteSpace=wrap;html=1;fillColor=#007CBD;strokeColor=none;fontColor=#FFFFFF;fontStyle=1;fontSize=22;" parent="1" vertex="1">
          <mxGeometry x="352.5" y="854.5" width="40" height="38" as="geometry" />
        </mxCell>
        <mxCell id="-QjtrjUzRDEMRZ5MF8oH-35" value="10" style="rounded=1;whiteSpace=wrap;html=1;fillColor=#007CBD;strokeColor=none;fontColor=#FFFFFF;fontStyle=1;fontSize=22;" parent="1" vertex="1">
          <mxGeometry x="652.5" y="854.5" width="40" height="38" as="geometry" />
        </mxCell>
        <mxCell id="-QjtrjUzRDEMRZ5MF8oH-47" value="Title text" style="text;html=1;resizable=0;points=[];autosize=1;align=left;verticalAlign=top;spacingTop=-4;fontSize=30;fontStyle=1" parent="1" vertex="1">
          <mxGeometry x="56.5" y="64.5" width="130" height="40" as="geometry" />
        </mxCell>
        <mxCell id="-QjtrjUzRDEMRZ5MF8oH-48" value="Subtitle text&lt;br style=&quot;font-size: 16px&quot;&gt;" style="text;html=1;resizable=0;points=[];autosize=1;align=left;verticalAlign=top;spacingTop=-4;fontSize=16;" parent="1" vertex="1">
          <mxGeometry x="56.5" y="114.5" width="100" height="20" as="geometry" />
        </mxCell>
        <mxCell id="-QjtrjUzRDEMRZ5MF8oH-49" value="Label" style="text;html=1;resizable=0;points=[];autosize=1;align=left;verticalAlign=top;spacingTop=-4;fontSize=16;fontStyle=1" parent="1" vertex="1">
          <mxGeometry x="84.5" y="164.5" width="50" height="20" as="geometry" />
        </mxCell>
        <mxCell id="SCVMTBWpLvtzJIhz15lM-1" value="" style="line;strokeWidth=2;html=1;fontSize=14;" parent="1" vertex="1">
          <mxGeometry x="52.5" y="139.5" width="1060" height="10" as="geometry" />
        </mxCell>
        <mxCell id="SCVMTBWpLvtzJIhz15lM-2" value="&lt;span&gt;Label&lt;/span&gt;" style="text;html=1;resizable=0;points=[];autosize=1;align=left;verticalAlign=top;spacingTop=-4;fontSize=14;fontStyle=1" parent="1" vertex="1">
          <mxGeometry x="442.5" y="216.5" width="50" height="20" as="geometry" />
        </mxCell>
        <mxCell id="SCVMTBWpLvtzJIhz15lM-3" value="" style="edgeStyle=orthogonalEdgeStyle;html=1;endArrow=open;elbow=vertical;startArrow=none;endFill=0;strokeColor=#545B64;rounded=0;fontSize=14;" parent="1" edge="1">
          <mxGeometry width="100" relative="1" as="geometry">
            <mxPoint x="354.5" y="394.5" as="sourcePoint" />
            <mxPoint x="404.5" y="394.5" as="targetPoint" />
          </mxGeometry>
        </mxCell>
        <mxCell id="SCVMTBWpLvtzJIhz15lM-5" value="" style="shape=curlyBracket;whiteSpace=wrap;html=1;rounded=1;fontSize=14;" parent="1" vertex="1">
          <mxGeometry x="415.5" y="248.5" width="20" height="290" as="geometry" />
        </mxCell>
        <mxCell id="SCVMTBWpLvtzJIhz15lM-17" value="&lt;span&gt;Label&lt;/span&gt;" style="edgeStyle=orthogonalEdgeStyle;html=1;endArrow=open;elbow=vertical;startArrow=none;endFill=0;strokeColor=#545B64;rounded=0;fontSize=14;strokeWidth=2;" parent="1" edge="1">
          <mxGeometry x="-0.037" y="20" width="100" relative="1" as="geometry">
            <mxPoint x="584.5" y="254.5" as="sourcePoint" />
            <mxPoint x="854.5" y="254.5" as="targetPoint" />
            <mxPoint as="offset" />
          </mxGeometry>
        </mxCell>
        <mxCell id="SCVMTBWpLvtzJIhz15lM-18" value="&lt;span&gt;Label&lt;/span&gt;" style="edgeStyle=orthogonalEdgeStyle;html=1;endArrow=none;elbow=vertical;startArrow=open;endFill=0;strokeColor=#545B64;rounded=0;fontSize=14;strokeWidth=2;startFill=0;" parent="1" edge="1">
          <mxGeometry x="-0.037" y="20" width="100" relative="1" as="geometry">
            <mxPoint x="582.5" y="318" as="sourcePoint" />
            <mxPoint x="852.5" y="318" as="targetPoint" />
            <mxPoint as="offset" />
          </mxGeometry>
        </mxCell>
        <mxCell id="SCVMTBWpLvtzJIhz15lM-19" value="&lt;span&gt;Label&lt;/span&gt;" style="edgeStyle=orthogonalEdgeStyle;html=1;endArrow=open;elbow=vertical;startArrow=none;endFill=0;strokeColor=#545B64;rounded=0;fontSize=14;strokeWidth=2;" parent="1" edge="1">
          <mxGeometry x="-0.037" y="20" width="100" relative="1" as="geometry">
            <mxPoint x="594.5000000000002" y="484.5" as="sourcePoint" />
            <mxPoint x="714.5" y="484.5" as="targetPoint" />
            <mxPoint as="offset" />
          </mxGeometry>
        </mxCell>
        <mxCell id="SCVMTBWpLvtzJIhz15lM-20" value="&lt;span&gt;Label&lt;/span&gt;" style="edgeStyle=orthogonalEdgeStyle;html=1;endArrow=open;elbow=vertical;startArrow=none;endFill=0;strokeColor=#545B64;rounded=0;fontSize=14;strokeWidth=2;" parent="1" edge="1">
          <mxGeometry x="-0.037" y="20" width="100" relative="1" as="geometry">
            <mxPoint x="838.5000000000002" y="487.5" as="sourcePoint" />
            <mxPoint x="924.5" y="487.5" as="targetPoint" />
            <mxPoint as="offset" />
          </mxGeometry>
        </mxCell>
        <mxCell id="SCVMTBWpLvtzJIhz15lM-21" value="Label" style="text;html=1;resizable=0;points=[];autosize=1;align=left;verticalAlign=top;spacingTop=-4;fontSize=16;fontStyle=1" parent="1" vertex="1">
          <mxGeometry x="66.5" y="576.5" width="50" height="20" as="geometry" />
        </mxCell>
        <mxCell id="SCVMTBWpLvtzJIhz15lM-22" value="&lt;span&gt;Label&lt;/span&gt;" style="text;html=1;resizable=0;points=[];autosize=1;align=left;verticalAlign=top;spacingTop=-4;fontSize=14;fontStyle=1" parent="1" vertex="1">
          <mxGeometry x="136.5" y="656.5" width="50" height="20" as="geometry" />
        </mxCell>
        <mxCell id="SCVMTBWpLvtzJIhz15lM-23" value="" style="shape=curlyBracket;whiteSpace=wrap;html=1;rounded=1;fontSize=14;" parent="1" vertex="1">
          <mxGeometry x="76.5" y="691.5" width="20" height="290" as="geometry" />
        </mxCell>
        <mxCell id="SCVMTBWpLvtzJIhz15lM-24" value="Video Events" style="edgeStyle=orthogonalEdgeStyle;html=1;endArrow=open;elbow=vertical;startArrow=none;endFill=0;strokeColor=#545B64;rounded=0;fontSize=14;strokeWidth=2;" parent="1" edge="1">
          <mxGeometry x="-0.037" y="20" width="100" relative="1" as="geometry">
            <mxPoint x="261.5" y="753.5" as="sourcePoint" />
            <mxPoint x="342.5" y="753.5" as="targetPoint" />
            <mxPoint as="offset" />
          </mxGeometry>
        </mxCell>
        <mxCell id="SCVMTBWpLvtzJIhz15lM-25" value="" style="edgeStyle=orthogonalEdgeStyle;html=1;endArrow=open;elbow=vertical;startArrow=none;endFill=0;strokeColor=#545B64;rounded=0;fontSize=14;strokeWidth=2;" parent="1" edge="1">
          <mxGeometry x="-0.037" y="20" width="100" relative="1" as="geometry">
            <mxPoint x="443" y="750" as="sourcePoint" />
            <mxPoint x="524" y="750" as="targetPoint" />
            <mxPoint as="offset" />
          </mxGeometry>
        </mxCell>
        <mxCell id="SCVMTBWpLvtzJIhz15lM-26" value="" style="edgeStyle=orthogonalEdgeStyle;html=1;endArrow=open;elbow=vertical;startArrow=none;endFill=0;strokeColor=#545B64;rounded=0;fontSize=14;strokeWidth=2;" parent="1" edge="1">
          <mxGeometry x="-0.037" y="20" width="100" relative="1" as="geometry">
            <mxPoint x="622.5" y="750" as="sourcePoint" />
            <mxPoint x="703.5" y="750" as="targetPoint" />
            <mxPoint as="offset" />
          </mxGeometry>
        </mxCell>
        <mxCell id="SCVMTBWpLvtzJIhz15lM-27" value="" style="edgeStyle=orthogonalEdgeStyle;html=1;endArrow=open;elbow=vertical;startArrow=none;endFill=0;strokeColor=#545B64;rounded=0;fontSize=14;strokeWidth=2;" parent="1" edge="1">
          <mxGeometry x="-0.037" y="20" width="100" relative="1" as="geometry">
            <mxPoint x="811.5" y="747.5" as="sourcePoint" />
            <mxPoint x="892.5" y="747.5" as="targetPoint" />
            <mxPoint as="offset" />
          </mxGeometry>
        </mxCell>
        <mxCell id="SCVMTBWpLvtzJIhz15lM-28" value="Video Stream" style="edgeStyle=orthogonalEdgeStyle;html=1;endArrow=open;elbow=vertical;startArrow=none;endFill=0;strokeColor=#545B64;rounded=0;fontSize=14;strokeWidth=2;" parent="1" edge="1">
          <mxGeometry x="0.0038" y="-11" width="100" relative="1" as="geometry">
            <mxPoint x="262" y="913" as="sourcePoint" />
            <mxPoint x="472.5" y="913.5" as="targetPoint" />
            <mxPoint as="offset" />
            <Array as="points">
              <mxPoint x="367.5" y="913.5" />
            </Array>
          </mxGeometry>
        </mxCell>
        <mxCell id="SCVMTBWpLvtzJIhz15lM-29" value="" style="edgeStyle=orthogonalEdgeStyle;html=1;endArrow=open;elbow=vertical;startArrow=none;endFill=0;strokeColor=#545B64;rounded=0;fontSize=14;strokeWidth=2;" parent="1" edge="1">
          <mxGeometry x="0.0038" y="-11" width="100" relative="1" as="geometry">
            <mxPoint x="575.0714285714287" y="913.2142857142858" as="sourcePoint" />
            <mxPoint x="762.5" y="913.5" as="targetPoint" />
            <mxPoint as="offset" />
            <Array as="points">
              <mxPoint x="680.5" y="913.5" />
            </Array>
          </mxGeometry>
        </mxCell>
        <mxCell id="SCVMTBWpLvtzJIhz15lM-30" value="Build" style="outlineConnect=0;gradientColor=none;fontColor=#545B64;strokeColor=none;fillColor=#879196;dashed=0;verticalLabelPosition=bottom;verticalAlign=top;align=center;html=1;fontSize=12;fontStyle=0;aspect=fixed;shape=mxgraph.aws4.illustration_devices;pointerEvents=1" parent="1" vertex="1">
          <mxGeometry x="962.5" y="179.5" width="52" height="38" as="geometry" />
        </mxCell>
        <mxCell id="SCVMTBWpLvtzJIhz15lM-31" value="Train" style="outlineConnect=0;gradientColor=none;fontColor=#545B64;strokeColor=none;fillColor=#879196;dashed=0;verticalLabelPosition=bottom;verticalAlign=top;align=center;html=1;fontSize=12;fontStyle=0;aspect=fixed;shape=mxgraph.aws4.illustration_devices;pointerEvents=1" parent="1" vertex="1">
          <mxGeometry x="892.5" y="267.5" width="52" height="38" as="geometry" />
        </mxCell>
        <mxCell id="SCVMTBWpLvtzJIhz15lM-32" value="Optimize" style="outlineConnect=0;gradientColor=none;fontColor=#545B64;strokeColor=none;fillColor=#879196;dashed=0;verticalLabelPosition=bottom;verticalAlign=top;align=center;html=1;fontSize=12;fontStyle=0;aspect=fixed;shape=mxgraph.aws4.illustration_devices;pointerEvents=1" parent="1" vertex="1">
          <mxGeometry x="1032.5" y="267.5" width="52" height="38" as="geometry" />
        </mxCell>
        <mxCell id="SCVMTBWpLvtzJIhz15lM-33" value="" style="edgeStyle=orthogonalEdgeStyle;html=1;endArrow=open;elbow=vertical;startArrow=none;endFill=0;strokeColor=#545B64;rounded=0;fontSize=14;" parent="1" edge="1">
          <mxGeometry width="100" relative="1" as="geometry">
            <mxPoint x="958.5" y="293.5" as="sourcePoint" />
            <mxPoint x="1018.5" y="293.5" as="targetPoint" />
          </mxGeometry>
        </mxCell>
        <mxCell id="SCVMTBWpLvtzJIhz15lM-35" value="" style="edgeStyle=orthogonalEdgeStyle;html=1;endArrow=open;elbow=vertical;startArrow=none;endFill=0;strokeColor=#545B64;rounded=0;fontSize=14;" parent="1" edge="1">
          <mxGeometry width="100" relative="1" as="geometry">
            <mxPoint x="992.5" y="236.46774193548387" as="sourcePoint" />
            <mxPoint x="992.5" y="256.4677419354839" as="targetPoint" />
          </mxGeometry>
        </mxCell>
        <mxCell id="7OVz4w7n9kzEPWy-4BBC-3" value="" style="rounded=0;whiteSpace=wrap;html=1;fillColor=#EAEDED;fontSize=22;fontColor=#FFFFFF;strokeColor=none;labelBackgroundColor=none;" parent="1" vertex="1">
          <mxGeometry x="1151" y="51" width="539" height="1220" as="geometry" />
        </mxCell>
        <mxCell id="7OVz4w7n9kzEPWy-4BBC-4" value="1" style="rounded=1;whiteSpace=wrap;html=1;fillColor=#007CBD;strokeColor=none;fontColor=#FFFFFF;fontStyle=1;fontSize=22;labelBackgroundColor=none;" parent="1" vertex="1">
          <mxGeometry x="1169" y="63" width="40" height="38" as="geometry" />
        </mxCell>
        <mxCell id="7OVz4w7n9kzEPWy-4BBC-5" value="2" style="rounded=1;whiteSpace=wrap;html=1;fillColor=#007CBD;strokeColor=none;fontColor=#FFFFFF;fontStyle=1;fontSize=22;labelBackgroundColor=none;" parent="1" vertex="1">
          <mxGeometry x="1167.5" y="185" width="40" height="38" as="geometry" />
        </mxCell>
        <mxCell id="7OVz4w7n9kzEPWy-4BBC-6" value="3" style="rounded=1;whiteSpace=wrap;html=1;fillColor=#007CBD;strokeColor=none;fontColor=#FFFFFF;fontStyle=1;fontSize=22;labelBackgroundColor=none;" parent="1" vertex="1">
          <mxGeometry x="1167.5" y="305" width="40" height="38" as="geometry" />
        </mxCell>
        <mxCell id="7OVz4w7n9kzEPWy-4BBC-7" value="4" style="rounded=1;whiteSpace=wrap;html=1;fillColor=#007CBD;strokeColor=none;fontColor=#FFFFFF;fontStyle=1;fontSize=22;labelBackgroundColor=none;" parent="1" vertex="1">
          <mxGeometry x="1167.5" y="419" width="40" height="38" as="geometry" />
        </mxCell>
        <mxCell id="7OVz4w7n9kzEPWy-4BBC-8" value="5" style="rounded=1;whiteSpace=wrap;html=1;fillColor=#007CBD;strokeColor=none;fontColor=#FFFFFF;fontStyle=1;fontSize=22;labelBackgroundColor=none;" parent="1" vertex="1">
          <mxGeometry x="1169" y="536" width="40" height="38" as="geometry" />
        </mxCell>
        <mxCell id="7OVz4w7n9kzEPWy-4BBC-9" value="6" style="rounded=1;whiteSpace=wrap;html=1;fillColor=#007CBD;strokeColor=none;fontColor=#FFFFFF;fontStyle=1;fontSize=22;labelBackgroundColor=none;" parent="1" vertex="1">
          <mxGeometry x="1170" y="651" width="40" height="38" as="geometry" />
        </mxCell>
        <mxCell id="7OVz4w7n9kzEPWy-4BBC-10" value="7" style="rounded=1;whiteSpace=wrap;html=1;fillColor=#007CBD;strokeColor=none;fontColor=#FFFFFF;fontStyle=1;fontSize=22;labelBackgroundColor=none;" parent="1" vertex="1">
          <mxGeometry x="1169.5" y="767" width="40" height="38" as="geometry" />
        </mxCell>
        <mxCell id="7OVz4w7n9kzEPWy-4BBC-11" value="8" style="rounded=1;whiteSpace=wrap;html=1;fillColor=#007CBD;strokeColor=none;fontColor=#FFFFFF;fontStyle=1;fontSize=22;labelBackgroundColor=none;" parent="1" vertex="1">
          <mxGeometry x="1170" y="885" width="40" height="38" as="geometry" />
        </mxCell>
        <mxCell id="7OVz4w7n9kzEPWy-4BBC-12" value="9" style="rounded=1;whiteSpace=wrap;html=1;fillColor=#007CBD;strokeColor=none;fontColor=#FFFFFF;fontStyle=1;fontSize=22;labelBackgroundColor=none;" parent="1" vertex="1">
          <mxGeometry x="1168" y="1005" width="40" height="38" as="geometry" />
        </mxCell>
        <mxCell id="7OVz4w7n9kzEPWy-4BBC-13" value="&lt;span&gt;Lorem ipsum dolor sit amet, consectetur adipiscing elit, sed do eiusmod tempor incididunt ut labore et dolore magna aliqua. Ut enim ad minim veniam, quis nostrud exercitation ullamco laboris nisi ut aliquip ex ea commodo consequat. Duis aute irure dolor in reprehenderit in voluptate velit esse cillum dolore eu fugiat nulla pariatur. Excepteur sint occaecat cupidatat non proident, sunt in culpa qui officia deserunt mollit anim id est laborum.&lt;/span&gt;&lt;br&gt;" style="text;html=1;align=left;verticalAlign=top;spacingTop=-4;fontSize=14;labelBackgroundColor=none;whiteSpace=wrap;" parent="1" vertex="1">
          <mxGeometry x="1220.5" y="62.5" width="449" height="118" as="geometry" />
        </mxCell>
        <mxCell id="7OVz4w7n9kzEPWy-4BBC-14" value="&lt;span&gt;Lorem ipsum dolor sit amet, consectetur adipiscing elit, sed do eiusmod tempor incididunt ut labore et dolore magna aliqua. Ut enim ad minim veniam, quis nostrud exercitation ullamco laboris nisi ut aliquip ex ea commodo consequat. Duis aute irure dolor in reprehenderit in voluptate velit esse cillum dolore eu fugiat nulla pariatur. Excepteur sint occaecat cupidatat non proident, sunt in culpa qui officia deserunt mollit anim id est laborum.&lt;/span&gt;&lt;br&gt;" style="text;html=1;align=left;verticalAlign=top;spacingTop=-4;fontSize=14;labelBackgroundColor=none;whiteSpace=wrap;" parent="1" vertex="1">
          <mxGeometry x="1219.5" y="185.5" width="450" height="115" as="geometry" />
        </mxCell>
        <mxCell id="7OVz4w7n9kzEPWy-4BBC-15" value="&lt;span&gt;Lorem ipsum dolor sit amet, consectetur adipiscing elit, sed do eiusmod tempor incididunt ut labore et dolore magna aliqua. Ut enim ad minim veniam, quis nostrud exercitation ullamco laboris nisi ut aliquip ex ea commodo consequat. Duis aute irure dolor in reprehenderit in voluptate velit esse cillum dolore eu fugiat nulla pariatur. Excepteur sint occaecat cupidatat non proident, sunt in culpa qui officia deserunt mollit anim id est laborum.&lt;/span&gt;&lt;br&gt;" style="text;html=1;align=left;verticalAlign=top;spacingTop=-4;fontSize=14;labelBackgroundColor=none;whiteSpace=wrap;" parent="1" vertex="1">
          <mxGeometry x="1219.5" y="303.5" width="450" height="117" as="geometry" />
        </mxCell>
        <mxCell id="7OVz4w7n9kzEPWy-4BBC-16" value="&lt;span&gt;Lorem ipsum dolor sit amet, consectetur adipiscing elit, sed do eiusmod tempor incididunt ut labore et dolore magna aliqua. Ut enim ad minim veniam, quis nostrud exercitation ullamco laboris nisi ut aliquip ex ea commodo consequat. Duis aute irure dolor in reprehenderit in voluptate velit esse cillum dolore eu fugiat nulla pariatur. Excepteur sint occaecat cupidatat non proident, sunt in culpa qui officia deserunt mollit anim id est laborum.&lt;/span&gt;&lt;br&gt;" style="text;html=1;align=left;verticalAlign=top;spacingTop=-4;fontSize=14;labelBackgroundColor=none;whiteSpace=wrap;" parent="1" vertex="1">
          <mxGeometry x="1219.5" y="419.5" width="450" height="121" as="geometry" />
        </mxCell>
        <mxCell id="7OVz4w7n9kzEPWy-4BBC-17" value="&lt;span&gt;Lorem ipsum dolor sit amet, consectetur adipiscing elit, sed do eiusmod tempor incididunt ut labore et dolore magna aliqua. Ut enim ad minim veniam, quis nostrud exercitation ullamco laboris nisi ut aliquip ex ea commodo consequat. Duis aute irure dolor in reprehenderit in voluptate velit esse cillum dolore eu fugiat nulla pariatur. Excepteur sint occaecat cupidatat non proident, sunt in culpa qui officia deserunt mollit anim id est laborum.&lt;/span&gt;&lt;br&gt;" style="text;html=1;align=left;verticalAlign=top;spacingTop=-4;fontSize=14;labelBackgroundColor=none;whiteSpace=wrap;" parent="1" vertex="1">
          <mxGeometry x="1220.5" y="536.5" width="449" height="114" as="geometry" />
        </mxCell>
        <mxCell id="7OVz4w7n9kzEPWy-4BBC-18" value="&lt;span&gt;Lorem ipsum dolor sit amet, consectetur adipiscing elit, sed do eiusmod tempor incididunt ut labore et dolore magna aliqua. Ut enim ad minim veniam, quis nostrud exercitation ullamco laboris nisi ut aliquip ex ea commodo consequat. Duis aute irure dolor in reprehenderit in voluptate velit esse cillum dolore eu fugiat nulla pariatur. Excepteur sint occaecat cupidatat non proident, sunt in culpa qui officia deserunt mollit anim id est laborum.&lt;/span&gt;&lt;br&gt;" style="text;html=1;align=left;verticalAlign=top;spacingTop=-4;fontSize=14;labelBackgroundColor=none;whiteSpace=wrap;" parent="1" vertex="1">
          <mxGeometry x="1220.5" y="652.5" width="450" height="118" as="geometry" />
        </mxCell>
        <mxCell id="7OVz4w7n9kzEPWy-4BBC-19" value="&lt;span&gt;Lorem ipsum dolor sit amet, consectetur adipiscing elit, sed do eiusmod tempor incididunt ut labore et dolore magna aliqua. Ut enim ad minim veniam, quis nostrud exercitation ullamco laboris nisi ut aliquip ex ea commodo consequat. Duis aute irure dolor in reprehenderit in voluptate velit esse cillum dolore eu fugiat nulla pariatur. Excepteur sint occaecat cupidatat non proident, sunt in culpa qui officia deserunt mollit anim id est laborum.&lt;/span&gt;&lt;br&gt;" style="text;html=1;align=left;verticalAlign=top;spacingTop=-4;fontSize=14;labelBackgroundColor=none;whiteSpace=wrap;" parent="1" vertex="1">
          <mxGeometry x="1220.5" y="767.5" width="449" height="113" as="geometry" />
        </mxCell>
        <mxCell id="7OVz4w7n9kzEPWy-4BBC-20" value="&lt;span&gt;Lorem ipsum dolor sit amet, consectetur adipiscing elit, sed do eiusmod tempor incididunt ut labore et dolore magna aliqua. Ut enim ad minim veniam, quis nostrud exercitation ullamco laboris nisi ut aliquip ex ea commodo consequat. Duis aute irure dolor in reprehenderit in voluptate velit esse cillum dolore eu fugiat nulla pariatur. Excepteur sint occaecat cupidatat non proident, sunt in culpa qui officia deserunt mollit anim id est laborum.&lt;/span&gt;&lt;br&gt;" style="text;html=1;align=left;verticalAlign=top;spacingTop=-4;fontSize=14;labelBackgroundColor=none;whiteSpace=wrap;" parent="1" vertex="1">
          <mxGeometry x="1220.5" y="886.5" width="449" height="124" as="geometry" />
        </mxCell>
        <mxCell id="7OVz4w7n9kzEPWy-4BBC-21" value="&lt;span&gt;Lorem ipsum dolor sit amet, consectetur adipiscing elit, sed do eiusmod tempor incididunt ut labore et dolore magna aliqua. Ut enim ad minim veniam, quis nostrud exercitation ullamco laboris nisi ut aliquip ex ea commodo consequat. Duis aute irure dolor in reprehenderit in voluptate velit esse cillum dolore eu fugiat nulla pariatur. Excepteur sint occaecat cupidatat non proident, sunt in culpa qui officia deserunt mollit anim id est laborum.&lt;/span&gt;&lt;br&gt;" style="text;html=1;align=left;verticalAlign=top;spacingTop=-4;fontSize=14;labelBackgroundColor=none;whiteSpace=wrap;" parent="1" vertex="1">
          <mxGeometry x="1220.5" y="1005.5" width="449" height="115" as="geometry" />
        </mxCell>
        <mxCell id="7OVz4w7n9kzEPWy-4BBC-22" value="10" style="rounded=1;whiteSpace=wrap;html=1;fillColor=#007CBD;strokeColor=none;fontColor=#FFFFFF;fontStyle=1;fontSize=22;labelBackgroundColor=none;" parent="1" vertex="1">
          <mxGeometry x="1169" y="1130.5" width="40" height="38" as="geometry" />
        </mxCell>
        <mxCell id="7OVz4w7n9kzEPWy-4BBC-23" value="&lt;span&gt;Lorem ipsum dolor sit amet, consectetur adipiscing elit, sed do eiusmod tempor incididunt ut labore et dolore magna aliqua. Ut enim ad minim veniam, quis nostrud exercitation ullamco laboris nisi ut aliquip ex ea commodo consequat. Duis aute irure dolor in reprehenderit in voluptate velit esse cillum dolore eu fugiat nulla pariatur. Excepteur sint occaecat cupidatat non proident, sunt in culpa qui officia deserunt mollit anim id est laborum.&lt;/span&gt;&lt;br&gt;" style="text;html=1;align=left;verticalAlign=top;spacingTop=-4;fontSize=14;labelBackgroundColor=none;whiteSpace=wrap;" parent="1" vertex="1">
          <mxGeometry x="1221.5" y="1131" width="449" height="115" as="geometry" />
        </mxCell>
        <mxCell id="LBFuib0fXcE8IPiod8Ob-1" value="" style="ellipse;fillColor=strokeColor;" vertex="1" parent="1">
          <mxGeometry x="1496" y="1290" width="14" height="14" as="geometry" />
        </mxCell>
        <mxCell id="LBFuib0fXcE8IPiod8Ob-2" value="ClearancePricing" style="swimlane;fontStyle=1;align=center;verticalAlign=middle;startSize=25;container=0;collapsible=0;rounded=1;arcSize=14;dropTarget=0;" vertex="1" parent="1">
          <mxGeometry x="50" y="1377" width="1584" height="2004" as="geometry" />
        </mxCell>
        <mxCell id="LBFuib0fXcE8IPiod8Ob-3" value="" style="ellipse;fillColor=strokeColor;" vertex="1" parent="1">
          <mxGeometry x="1496" y="1402" width="14" height="14" as="geometry" />
        </mxCell>
        <mxCell id="LBFuib0fXcE8IPiod8Ob-4" value="CheckClearance" style="rounded=1;arcSize=40;strokeWidth=2" vertex="1" parent="1">
          <mxGeometry x="1438" y="1466" width="130" height="35" as="geometry" />
        </mxCell>
        <mxCell id="LBFuib0fXcE8IPiod8Ob-5" value="ApplyClearancePrice" style="rounded=1;arcSize=40;strokeWidth=2" vertex="1" parent="1">
          <mxGeometry x="1421" y="1631" width="164" height="35" as="geometry" />
        </mxCell>
        <mxCell id="LBFuib0fXcE8IPiod8Ob-6" value="SpecialMemberPricing" style="swimlane;fontStyle=1;align=center;verticalAlign=middle;startSize=25;container=0;collapsible=0;rounded=1;arcSize=14;dropTarget=0;" vertex="1" parent="1">
          <mxGeometry x="70" y="1598" width="1307" height="1757" as="geometry" />
        </mxCell>
        <mxCell id="LBFuib0fXcE8IPiod8Ob-7" value="DisplayClearanceBadge" style="rounded=1;arcSize=40;strokeWidth=2" vertex="1" parent="1">
          <mxGeometry x="1412" y="1749" width="181" height="35" as="geometry" />
        </mxCell>
        <mxCell id="LBFuib0fXcE8IPiod8Ob-8" value="" style="ellipse;shape=endState;fillColor=strokeColor;" vertex="1" parent="1">
          <mxGeometry x="1496" y="1925" width="14" height="14" as="geometry" />
        </mxCell>
        <mxCell id="LBFuib0fXcE8IPiod8Ob-9" value="" style="ellipse;fillColor=strokeColor;" vertex="1" parent="1">
          <mxGeometry x="1203" y="1642" width="14" height="14" as="geometry" />
        </mxCell>
        <mxCell id="LBFuib0fXcE8IPiod8Ob-10" value="CheckSpecialMember" style="rounded=1;arcSize=40;strokeWidth=2" vertex="1" parent="1">
          <mxGeometry x="1126" y="1749" width="168" height="35" as="geometry" />
        </mxCell>
        <mxCell id="LBFuib0fXcE8IPiod8Ob-11" value="ApplySpecialMemberPrice" style="rounded=1;arcSize=40;strokeWidth=2" vertex="1" parent="1">
          <mxGeometry x="1142" y="1915" width="200" height="35" as="geometry" />
        </mxCell>
        <mxCell id="LBFuib0fXcE8IPiod8Ob-12" value="SalePricing" style="swimlane;fontStyle=1;align=center;verticalAlign=middle;startSize=25;container=0;collapsible=0;rounded=1;arcSize=14;dropTarget=0;" vertex="1" parent="1">
          <mxGeometry x="90" y="1882" width="1017" height="1449" as="geometry" />
        </mxCell>
        <mxCell id="LBFuib0fXcE8IPiod8Ob-13" value="DisplaySpecialBadge" style="rounded=1;arcSize=40;strokeWidth=2" vertex="1" parent="1">
          <mxGeometry x="1161" y="2033" width="161" height="35" as="geometry" />
        </mxCell>
        <mxCell id="LBFuib0fXcE8IPiod8Ob-14" value="" style="ellipse;shape=endState;fillColor=strokeColor;" vertex="1" parent="1">
          <mxGeometry x="1235" y="2209" width="14" height="14" as="geometry" />
        </mxCell>
        <mxCell id="LBFuib0fXcE8IPiod8Ob-15" value="" style="ellipse;fillColor=strokeColor;" vertex="1" parent="1">
          <mxGeometry x="902" y="1925" width="14" height="14" as="geometry" />
        </mxCell>
        <mxCell id="LBFuib0fXcE8IPiod8Ob-16" value="CheckSaleEligibility" style="rounded=1;arcSize=40;strokeWidth=2" vertex="1" parent="1">
          <mxGeometry x="831" y="2033" width="156" height="35" as="geometry" />
        </mxCell>
        <mxCell id="LBFuib0fXcE8IPiod8Ob-17" value="ApplySalePrice" style="rounded=1;arcSize=40;strokeWidth=2" vertex="1" parent="1">
          <mxGeometry x="933" y="2199" width="122" height="35" as="geometry" />
        </mxCell>
        <mxCell id="LBFuib0fXcE8IPiod8Ob-18" value="SpecialValuePricing" style="swimlane;fontStyle=1;align=center;verticalAlign=middle;startSize=25;container=0;collapsible=0;rounded=1;arcSize=14;dropTarget=0;" vertex="1" parent="1">
          <mxGeometry x="110" y="2165" width="779" height="1140" as="geometry" />
        </mxCell>
        <mxCell id="LBFuib0fXcE8IPiod8Ob-19" value="CalculateSavings" style="rounded=1;arcSize=40;strokeWidth=2" vertex="1" parent="1">
          <mxGeometry x="926" y="2316" width="135" height="35" as="geometry" />
        </mxCell>
        <mxCell id="LBFuib0fXcE8IPiod8Ob-20" value="DisplaySaleBadge" style="rounded=1;arcSize=40;strokeWidth=2" vertex="1" parent="1">
          <mxGeometry x="924" y="2509" width="139" height="35" as="geometry" />
        </mxCell>
        <mxCell id="LBFuib0fXcE8IPiod8Ob-21" value="" style="ellipse;shape=endState;fillColor=strokeColor;" vertex="1" parent="1">
          <mxGeometry x="987" y="2646" width="14" height="14" as="geometry" />
        </mxCell>
        <mxCell id="LBFuib0fXcE8IPiod8Ob-22" value="" style="ellipse;fillColor=strokeColor;" vertex="1" parent="1">
          <mxGeometry x="630" y="2209" width="14" height="14" as="geometry" />
        </mxCell>
        <mxCell id="LBFuib0fXcE8IPiod8Ob-23" value="CheckSpecialValue" style="rounded=1;arcSize=40;strokeWidth=2" vertex="1" parent="1">
          <mxGeometry x="563" y="2316" width="149" height="35" as="geometry" />
        </mxCell>
        <mxCell id="LBFuib0fXcE8IPiod8Ob-24" value="ApplySpecialValuePrice" style="rounded=1;arcSize=40;strokeWidth=2" vertex="1" parent="1">
          <mxGeometry x="663" y="2509" width="182" height="35" as="geometry" />
        </mxCell>
        <mxCell id="LBFuib0fXcE8IPiod8Ob-25" value="GroupPricing" style="swimlane;fontStyle=1;align=center;verticalAlign=middle;startSize=25;container=0;collapsible=0;rounded=1;arcSize=14;dropTarget=0;" vertex="1" parent="1">
          <mxGeometry x="130" y="2466" width="490" height="814" as="geometry" />
        </mxCell>
        <mxCell id="LBFuib0fXcE8IPiod8Ob-26" value="DisplaySpecialValueBadge" style="rounded=1;arcSize=40;strokeWidth=2" vertex="1" parent="1">
          <mxGeometry x="655" y="2635" width="200" height="35" as="geometry" />
        </mxCell>
        <mxCell id="LBFuib0fXcE8IPiod8Ob-27" value="" style="ellipse;shape=endState;fillColor=strokeColor;" vertex="1" parent="1">
          <mxGeometry x="747" y="2960" width="14" height="14" as="geometry" />
        </mxCell>
        <mxCell id="LBFuib0fXcE8IPiod8Ob-28" value="" style="ellipse;fillColor=strokeColor;" vertex="1" parent="1">
          <mxGeometry x="349" y="2519" width="14" height="14" as="geometry" />
        </mxCell>
        <mxCell id="LBFuib0fXcE8IPiod8Ob-29" value="CheckGroupPricing" style="rounded=1;arcSize=40;strokeWidth=2" vertex="1" parent="1">
          <mxGeometry x="281" y="2635" width="151" height="35" as="geometry" />
        </mxCell>
        <mxCell id="LBFuib0fXcE8IPiod8Ob-30" value="DisplayPriceRange" style="rounded=1;arcSize=40;strokeWidth=2" vertex="1" parent="1">
          <mxGeometry x="165" y="2950" width="146" height="35" as="geometry" />
        </mxCell>
        <mxCell id="LBFuib0fXcE8IPiod8Ob-31" value="FinalPriceDisplay" style="swimlane;fontStyle=1;align=center;verticalAlign=middle;startSize=25;container=0;collapsible=0;rounded=1;arcSize=14;dropTarget=0;verticalAlign=top;" vertex="1" parent="1">
          <mxGeometry x="361" y="2768" width="224" height="399" as="geometry" />
        </mxCell>
        <mxCell id="LBFuib0fXcE8IPiod8Ob-32" value="" style="ellipse;fillColor=strokeColor;" vertex="1" parent="LBFuib0fXcE8IPiod8Ob-31">
          <mxGeometry x="113" y="46" width="14" height="14" as="geometry" />
        </mxCell>
        <mxCell id="LBFuib0fXcE8IPiod8Ob-33" value="CalculateFinalPrice" style="rounded=1;arcSize=40;strokeWidth=2" vertex="1" parent="LBFuib0fXcE8IPiod8Ob-31">
          <mxGeometry x="43" y="135" width="154" height="35" as="geometry" />
        </mxCell>
        <mxCell id="LBFuib0fXcE8IPiod8Ob-34" value="DisplayPrice" style="rounded=1;arcSize=40;strokeWidth=2" vertex="1" parent="LBFuib0fXcE8IPiod8Ob-31">
          <mxGeometry x="69" y="244" width="102" height="35" as="geometry" />
        </mxCell>
        <mxCell id="LBFuib0fXcE8IPiod8Ob-35" value="" style="ellipse;shape=endState;fillColor=strokeColor;" vertex="1" parent="LBFuib0fXcE8IPiod8Ob-31">
          <mxGeometry x="113" y="354" width="14" height="14" as="geometry" />
        </mxCell>
        <mxCell id="LBFuib0fXcE8IPiod8Ob-36" value="" style="curved=1;startArrow=none;;exitX=0.5;exitY=0.96;entryX=0.5;entryY=-0.01;rounded=0;" edge="1" parent="LBFuib0fXcE8IPiod8Ob-31" source="LBFuib0fXcE8IPiod8Ob-32" target="LBFuib0fXcE8IPiod8Ob-33">
          <mxGeometry relative="1" as="geometry">
            <Array as="points" />
          </mxGeometry>
        </mxCell>
        <mxCell id="LBFuib0fXcE8IPiod8Ob-37" value="" style="curved=1;startArrow=none;;exitX=0.5;exitY=0.98;entryX=0.5;entryY=0;rounded=0;" edge="1" parent="LBFuib0fXcE8IPiod8Ob-31" source="LBFuib0fXcE8IPiod8Ob-33" target="LBFuib0fXcE8IPiod8Ob-34">
          <mxGeometry relative="1" as="geometry">
            <Array as="points" />
          </mxGeometry>
        </mxCell>
        <mxCell id="LBFuib0fXcE8IPiod8Ob-38" value="" style="curved=1;startArrow=none;;exitX=0.5;exitY=1;entryX=0.5;entryY=-0.01;rounded=0;" edge="1" parent="LBFuib0fXcE8IPiod8Ob-31" source="LBFuib0fXcE8IPiod8Ob-34" target="LBFuib0fXcE8IPiod8Ob-35">
          <mxGeometry relative="1" as="geometry">
            <Array as="points" />
          </mxGeometry>
        </mxCell>
        <mxCell id="LBFuib0fXcE8IPiod8Ob-39" value="" style="ellipse;shape=endState;fillColor=strokeColor;" vertex="1" parent="1">
          <mxGeometry x="231" y="3241" width="14" height="14" as="geometry" />
        </mxCell>
        <mxCell id="LBFuib0fXcE8IPiod8Ob-40" value="Is it a clearance item?&#xa;      Lowest pricing priority" style="whiteSpace=wrap;strokeWidth=2;" vertex="1" parent="1">
          <mxGeometry x="1670" y="1573" width="247" height="126" as="geometry" />
        </mxCell>
        <mxCell id="LBFuib0fXcE8IPiod8Ob-41" value="Is it a clearance item?&#xa;      Lowest pricing priority" style="align=left;spacingLeft=4;" vertex="1" parent="1">
          <mxGeometry x="1705" y="1623" width="177" height="51" as="geometry" />
        </mxCell>
        <mxCell id="LBFuib0fXcE8IPiod8Ob-42" value="Special member discount&#xa;      Greater than zero" style="whiteSpace=wrap;strokeWidth=2;" vertex="1" parent="1">
          <mxGeometry x="1661" y="1857" width="265" height="126" as="geometry" />
        </mxCell>
        <mxCell id="LBFuib0fXcE8IPiod8Ob-43" value="Special member discount&#xa;      Greater than zero" style="align=left;spacingLeft=4;" vertex="1" parent="1">
          <mxGeometry x="1696" y="1907" width="195" height="51" as="geometry" />
        </mxCell>
        <mxCell id="LBFuib0fXcE8IPiod8Ob-44" value="Sale price less than retail&#xa;      Min 5% discount" style="whiteSpace=wrap;strokeWidth=2;" vertex="1" parent="1">
          <mxGeometry x="1659" y="2140" width="268" height="126" as="geometry" />
        </mxCell>
        <mxCell id="LBFuib0fXcE8IPiod8Ob-45" value="Sale price less than retail&#xa;      Min 5% discount" style="align=left;spacingLeft=4;" vertex="1" parent="1">
          <mxGeometry x="1694" y="2190" width="198" height="51" as="geometry" />
        </mxCell>
        <mxCell id="LBFuib0fXcE8IPiod8Ob-46" value="No compare price&#xa;      &quot;Special Value&quot; badge" style="whiteSpace=wrap;strokeWidth=2;" vertex="1" parent="1">
          <mxGeometry x="1654" y="2441" width="279" height="144" as="geometry" />
        </mxCell>
        <mxCell id="LBFuib0fXcE8IPiod8Ob-47" value="No compare price&#xa;      &quot;Special Value&quot; badge" style="align=left;spacingLeft=4;" vertex="1" parent="1">
          <mxGeometry x="1689" y="2491" width="209" height="69" as="geometry" />
        </mxCell>
        <mxCell id="LBFuib0fXcE8IPiod8Ob-48" value="Multiple product variations&#xa;      Price range display" style="whiteSpace=wrap;strokeWidth=2;" vertex="1" parent="1">
          <mxGeometry x="1654" y="2743" width="279" height="449" as="geometry" />
        </mxCell>
        <mxCell id="LBFuib0fXcE8IPiod8Ob-49" value="Multiple product variations&#xa;      Price range display" style="align=left;spacingLeft=4;" vertex="1" parent="1">
          <mxGeometry x="1689" y="2941" width="209" height="51" as="geometry" />
        </mxCell>
        <mxCell id="LBFuib0fXcE8IPiod8Ob-50" value="" style="curved=1;startArrow=none;;exitX=0.5;exitY=0.98;entryX=0.5;entryY=-0.01;rounded=0;" edge="1" parent="1" source="LBFuib0fXcE8IPiod8Ob-3" target="LBFuib0fXcE8IPiod8Ob-4">
          <mxGeometry relative="1" as="geometry">
            <Array as="points" />
          </mxGeometry>
        </mxCell>
        <mxCell id="LBFuib0fXcE8IPiod8Ob-51" value="Meets Clearance Criteria" style="curved=1;startArrow=none;;exitX=0.5;exitY=0.98;entryX=0.5;entryY=0.01;rounded=0;" edge="1" parent="1" source="LBFuib0fXcE8IPiod8Ob-4" target="LBFuib0fXcE8IPiod8Ob-5">
          <mxGeometry relative="1" as="geometry">
            <Array as="points">
              <mxPoint x="1503" y="1537" />
            </Array>
          </mxGeometry>
        </mxCell>
        <mxCell id="LBFuib0fXcE8IPiod8Ob-52" value="" style="curved=1;startArrow=none;;exitX=0.5;exitY=1;entryX=0.5;entryY=0.01;rounded=0;" edge="1" parent="1" source="LBFuib0fXcE8IPiod8Ob-5" target="LBFuib0fXcE8IPiod8Ob-7">
          <mxGeometry relative="1" as="geometry">
            <Array as="points" />
          </mxGeometry>
        </mxCell>
        <mxCell id="LBFuib0fXcE8IPiod8Ob-53" value="" style="curved=1;startArrow=none;;exitX=0.5;exitY=1;entryX=0.48;entryY=0.02;rounded=0;" edge="1" parent="1" source="LBFuib0fXcE8IPiod8Ob-7" target="LBFuib0fXcE8IPiod8Ob-8">
          <mxGeometry relative="1" as="geometry">
            <Array as="points" />
          </mxGeometry>
        </mxCell>
        <mxCell id="LBFuib0fXcE8IPiod8Ob-54" value="" style="curved=1;startArrow=none;;exitX=0.49;exitY=0.97;entryX=0.5;entryY=0.01;rounded=0;" edge="1" parent="1" source="LBFuib0fXcE8IPiod8Ob-9" target="LBFuib0fXcE8IPiod8Ob-10">
          <mxGeometry relative="1" as="geometry">
            <Array as="points" />
          </mxGeometry>
        </mxCell>
        <mxCell id="LBFuib0fXcE8IPiod8Ob-55" value="Special Discount &gt; 0" style="curved=1;startArrow=none;;exitX=0.56;exitY=1;entryX=0.5;entryY=0;rounded=0;" edge="1" parent="1" source="LBFuib0fXcE8IPiod8Ob-10" target="LBFuib0fXcE8IPiod8Ob-11">
          <mxGeometry relative="1" as="geometry">
            <Array as="points">
              <mxPoint x="1242" y="1820" />
            </Array>
          </mxGeometry>
        </mxCell>
        <mxCell id="LBFuib0fXcE8IPiod8Ob-56" value="" style="curved=1;startArrow=none;;exitX=0.5;exitY=0.99;entryX=0.5;entryY=0;rounded=0;" edge="1" parent="1" source="LBFuib0fXcE8IPiod8Ob-11" target="LBFuib0fXcE8IPiod8Ob-13">
          <mxGeometry relative="1" as="geometry">
            <Array as="points" />
          </mxGeometry>
        </mxCell>
        <mxCell id="LBFuib0fXcE8IPiod8Ob-57" value="" style="curved=1;startArrow=none;;exitX=0.5;exitY=0.99;entryX=0.49;entryY=-0.01;rounded=0;" edge="1" parent="1" source="LBFuib0fXcE8IPiod8Ob-13" target="LBFuib0fXcE8IPiod8Ob-14">
          <mxGeometry relative="1" as="geometry">
            <Array as="points" />
          </mxGeometry>
        </mxCell>
        <mxCell id="LBFuib0fXcE8IPiod8Ob-58" value="" style="curved=1;startArrow=none;;exitX=0.5;exitY=1.02;entryX=0.5;entryY=0;rounded=0;" edge="1" parent="1" source="LBFuib0fXcE8IPiod8Ob-15" target="LBFuib0fXcE8IPiod8Ob-16">
          <mxGeometry relative="1" as="geometry">
            <Array as="points" />
          </mxGeometry>
        </mxCell>
        <mxCell id="LBFuib0fXcE8IPiod8Ob-59" value="Meets Sale Criteria" style="curved=1;startArrow=none;;exitX=0.68;exitY=0.99;entryX=0.5;entryY=-0.01;rounded=0;" edge="1" parent="1" source="LBFuib0fXcE8IPiod8Ob-16" target="LBFuib0fXcE8IPiod8Ob-17">
          <mxGeometry relative="1" as="geometry">
            <Array as="points">
              <mxPoint x="994" y="2104" />
            </Array>
          </mxGeometry>
        </mxCell>
        <mxCell id="LBFuib0fXcE8IPiod8Ob-60" value="" style="curved=1;startArrow=none;;exitX=0.5;exitY=0.98;entryX=0.5;entryY=0.01;rounded=0;" edge="1" parent="1" source="LBFuib0fXcE8IPiod8Ob-17" target="LBFuib0fXcE8IPiod8Ob-19">
          <mxGeometry relative="1" as="geometry">
            <Array as="points" />
          </mxGeometry>
        </mxCell>
        <mxCell id="LBFuib0fXcE8IPiod8Ob-61" value="" style="curved=1;startArrow=none;;exitX=0.5;exitY=1;entryX=0.5;entryY=-0.01;rounded=0;" edge="1" parent="1" source="LBFuib0fXcE8IPiod8Ob-19" target="LBFuib0fXcE8IPiod8Ob-20">
          <mxGeometry relative="1" as="geometry">
            <Array as="points" />
          </mxGeometry>
        </mxCell>
        <mxCell id="LBFuib0fXcE8IPiod8Ob-62" value="" style="curved=1;startArrow=none;;exitX=0.5;exitY=0.98;entryX=0.49;entryY=-0.03;rounded=0;" edge="1" parent="1" source="LBFuib0fXcE8IPiod8Ob-20" target="LBFuib0fXcE8IPiod8Ob-21">
          <mxGeometry relative="1" as="geometry">
            <Array as="points" />
          </mxGeometry>
        </mxCell>
        <mxCell id="LBFuib0fXcE8IPiod8Ob-63" value="" style="curved=1;startArrow=none;;exitX=0.51;exitY=0.99;entryX=0.5;entryY=0.01;rounded=0;" edge="1" parent="1" source="LBFuib0fXcE8IPiod8Ob-22" target="LBFuib0fXcE8IPiod8Ob-23">
          <mxGeometry relative="1" as="geometry">
            <Array as="points" />
          </mxGeometry>
        </mxCell>
        <mxCell id="LBFuib0fXcE8IPiod8Ob-64" value="Special Value Conditions Met" style="curved=1;startArrow=none;;exitX=0.72;exitY=1;entryX=0.5;entryY=-0.01;rounded=0;" edge="1" parent="1" source="LBFuib0fXcE8IPiod8Ob-23" target="LBFuib0fXcE8IPiod8Ob-24">
          <mxGeometry relative="1" as="geometry">
            <Array as="points">
              <mxPoint x="754" y="2396" />
            </Array>
          </mxGeometry>
        </mxCell>
        <mxCell id="LBFuib0fXcE8IPiod8Ob-65" value="" style="curved=1;startArrow=none;;exitX=0.5;exitY=0.98;entryX=0.5;entryY=0.01;rounded=0;" edge="1" parent="1" source="LBFuib0fXcE8IPiod8Ob-24" target="LBFuib0fXcE8IPiod8Ob-26">
          <mxGeometry relative="1" as="geometry">
            <Array as="points" />
          </mxGeometry>
        </mxCell>
        <mxCell id="LBFuib0fXcE8IPiod8Ob-66" value="" style="curved=1;startArrow=none;;exitX=0.5;exitY=1;entryX=0.53;entryY=0;rounded=0;" edge="1" parent="1" source="LBFuib0fXcE8IPiod8Ob-26" target="LBFuib0fXcE8IPiod8Ob-27">
          <mxGeometry relative="1" as="geometry">
            <Array as="points" />
          </mxGeometry>
        </mxCell>
        <mxCell id="LBFuib0fXcE8IPiod8Ob-67" value="" style="curved=1;startArrow=none;;exitX=0.53;exitY=0.99;entryX=0.5;entryY=0.01;rounded=0;" edge="1" parent="1" source="LBFuib0fXcE8IPiod8Ob-28" target="LBFuib0fXcE8IPiod8Ob-29">
          <mxGeometry relative="1" as="geometry">
            <Array as="points" />
          </mxGeometry>
        </mxCell>
        <mxCell id="LBFuib0fXcE8IPiod8Ob-68" value="Group Price Available" style="curved=1;startArrow=none;;exitX=0.25;exitY=1;entryX=0.5;entryY=-0.01;rounded=0;" edge="1" parent="1" source="LBFuib0fXcE8IPiod8Ob-29" target="LBFuib0fXcE8IPiod8Ob-30">
          <mxGeometry relative="1" as="geometry">
            <Array as="points">
              <mxPoint x="238" y="2706" />
            </Array>
          </mxGeometry>
        </mxCell>
        <mxCell id="LBFuib0fXcE8IPiod8Ob-69" value="" style="curved=1;startArrow=none;;exitX=0.5;exitY=0.98;entryX=0.49;entryY=0.02;rounded=0;" edge="1" parent="1" source="LBFuib0fXcE8IPiod8Ob-30" target="LBFuib0fXcE8IPiod8Ob-39">
          <mxGeometry relative="1" as="geometry">
            <Array as="points" />
          </mxGeometry>
        </mxCell>
        <mxCell id="LBFuib0fXcE8IPiod8Ob-70" value="" style="curved=1;dashed=1;startArrow=none;;exitX=0.77;exitY=0.98;entryX=0;entryY=0.01;rounded=0;" edge="1" parent="1" source="LBFuib0fXcE8IPiod8Ob-4" target="LBFuib0fXcE8IPiod8Ob-41">
          <mxGeometry relative="1" as="geometry">
            <Array as="points">
              <mxPoint x="1614" y="1537" />
              <mxPoint x="1614" y="1598" />
            </Array>
          </mxGeometry>
        </mxCell>
        <mxCell id="LBFuib0fXcE8IPiod8Ob-71" value="" style="curved=1;dashed=1;startArrow=none;;exitX=0.77;exitY=1;entryX=0;entryY=0.28;rounded=0;" edge="1" parent="1" source="LBFuib0fXcE8IPiod8Ob-10" target="LBFuib0fXcE8IPiod8Ob-43">
          <mxGeometry relative="1" as="geometry">
            <Array as="points">
              <mxPoint x="1352" y="1820" />
              <mxPoint x="1352" y="1882" />
            </Array>
          </mxGeometry>
        </mxCell>
        <mxCell id="LBFuib0fXcE8IPiod8Ob-72" value="" style="curved=1;dashed=1;startArrow=none;;exitX=0.86;exitY=0.99;entryX=0;entryY=0.37;rounded=0;" edge="1" parent="1" source="LBFuib0fXcE8IPiod8Ob-16" target="LBFuib0fXcE8IPiod8Ob-45">
          <mxGeometry relative="1" as="geometry">
            <Array as="points">
              <mxPoint x="1085" y="2104" />
              <mxPoint x="1085" y="2165" />
            </Array>
          </mxGeometry>
        </mxCell>
        <mxCell id="LBFuib0fXcE8IPiod8Ob-73" value="" style="curved=1;dashed=1;startArrow=none;;exitX=0.92;exitY=1;entryX=0;entryY=0.41;rounded=0;" edge="1" parent="1" source="LBFuib0fXcE8IPiod8Ob-23" target="LBFuib0fXcE8IPiod8Ob-47">
          <mxGeometry relative="1" as="geometry">
            <Array as="points">
              <mxPoint x="867" y="2396" />
              <mxPoint x="867" y="2466" />
            </Array>
          </mxGeometry>
        </mxCell>
        <mxCell id="LBFuib0fXcE8IPiod8Ob-74" value="" style="curved=1;dashed=1;startArrow=none;;exitX=0.97;exitY=1;entryX=0;entryY=0.13;rounded=0;" edge="1" parent="1" source="LBFuib0fXcE8IPiod8Ob-29" target="LBFuib0fXcE8IPiod8Ob-49">
          <mxGeometry relative="1" as="geometry">
            <Array as="points">
              <mxPoint x="577" y="2706" />
              <mxPoint x="577" y="2743" />
            </Array>
          </mxGeometry>
        </mxCell>
        <mxCell id="LBFuib0fXcE8IPiod8Ob-75" value="Product Entered" style="curved=1;startArrow=none;;rounded=0;" edge="1" parent="1" source="LBFuib0fXcE8IPiod8Ob-1" target="LBFuib0fXcE8IPiod8Ob-2">
          <mxGeometry relative="1" as="geometry">
            <Array as="points" />
          </mxGeometry>
        </mxCell>
        <mxCell id="LBFuib0fXcE8IPiod8Ob-76" value="No Clearance" style="curved=1;startArrow=none;;rounded=0;" edge="1" parent="1" source="LBFuib0fXcE8IPiod8Ob-4" target="LBFuib0fXcE8IPiod8Ob-6">
          <mxGeometry relative="1" as="geometry">
            <Array as="points" />
          </mxGeometry>
        </mxCell>
        <mxCell id="LBFuib0fXcE8IPiod8Ob-77" value="No Special Member Price" style="curved=1;startArrow=none;;rounded=0;" edge="1" parent="1" source="LBFuib0fXcE8IPiod8Ob-10" target="LBFuib0fXcE8IPiod8Ob-12">
          <mxGeometry relative="1" as="geometry">
            <Array as="points" />
          </mxGeometry>
        </mxCell>
        <mxCell id="LBFuib0fXcE8IPiod8Ob-78" value="No Sale Price" style="curved=1;startArrow=none;;rounded=0;" edge="1" parent="1" source="LBFuib0fXcE8IPiod8Ob-16" target="LBFuib0fXcE8IPiod8Ob-18">
          <mxGeometry relative="1" as="geometry">
            <Array as="points" />
          </mxGeometry>
        </mxCell>
        <mxCell id="LBFuib0fXcE8IPiod8Ob-79" value="No Special Value" style="curved=1;startArrow=none;;rounded=0;" edge="1" parent="1" source="LBFuib0fXcE8IPiod8Ob-23" target="LBFuib0fXcE8IPiod8Ob-25">
          <mxGeometry relative="1" as="geometry">
            <Array as="points" />
          </mxGeometry>
        </mxCell>
        <mxCell id="LBFuib0fXcE8IPiod8Ob-80" value="No Group Pricing" style="curved=1;startArrow=none;;exitX=0.75;exitY=1;entryX=0.5;entryY=0;rounded=0;" edge="1" parent="1" source="LBFuib0fXcE8IPiod8Ob-29" target="LBFuib0fXcE8IPiod8Ob-31">
          <mxGeometry relative="1" as="geometry">
            <Array as="points">
              <mxPoint x="473" y="2706" />
            </Array>
          </mxGeometry>
        </mxCell>
      </root>
    </mxGraphModel>
  </diagram>
  <diagram id="PnUdktU2z8NRB337eyiJ" name="Page-2">
    <mxGraphModel dx="1221" dy="765" grid="1" gridSize="10" guides="1" tooltips="1" connect="1" arrows="1" fold="1" page="1" pageScale="1" pageWidth="850" pageHeight="1100" math="0" shadow="0">
      <root>
        <mxCell id="0" />
        <mxCell id="1" parent="0" />
        <mxCell id="8MrVoCjDA9bokPDS24iN-1" value="" style="ellipse;fillColor=strokeColor;" vertex="1" parent="1">
          <mxGeometry x="1466" y="20" width="14" height="14" as="geometry" />
        </mxCell>
        <mxCell id="8MrVoCjDA9bokPDS24iN-2" value="ClearancePricing" style="swimlane;fontStyle=1;align=center;verticalAlign=middle;startSize=25;container=0;collapsible=0;rounded=1;arcSize=14;dropTarget=0;" vertex="1" parent="1">
          <mxGeometry x="20" y="107" width="1584" height="2004" as="geometry" />
        </mxCell>
        <mxCell id="8MrVoCjDA9bokPDS24iN-3" value="" style="ellipse;fillColor=strokeColor;" vertex="1" parent="1">
          <mxGeometry x="1466" y="132" width="14" height="14" as="geometry" />
        </mxCell>
        <mxCell id="8MrVoCjDA9bokPDS24iN-4" value="CheckClearance" style="rounded=1;arcSize=40;strokeWidth=2" vertex="1" parent="1">
          <mxGeometry x="1408" y="196" width="130" height="35" as="geometry" />
        </mxCell>
        <mxCell id="8MrVoCjDA9bokPDS24iN-5" value="ApplyClearancePrice" style="rounded=1;arcSize=40;strokeWidth=2" vertex="1" parent="1">
          <mxGeometry x="1391" y="361" width="164" height="35" as="geometry" />
        </mxCell>
        <mxCell id="8MrVoCjDA9bokPDS24iN-6" value="SpecialMemberPricing" style="swimlane;fontStyle=1;align=center;verticalAlign=middle;startSize=25;container=0;collapsible=0;rounded=1;arcSize=14;dropTarget=0;" vertex="1" parent="1">
          <mxGeometry x="40" y="328" width="1307" height="1757" as="geometry" />
        </mxCell>
        <mxCell id="8MrVoCjDA9bokPDS24iN-7" value="DisplayClearanceBadge" style="rounded=1;arcSize=40;strokeWidth=2" vertex="1" parent="1">
          <mxGeometry x="1382" y="479" width="181" height="35" as="geometry" />
        </mxCell>
        <mxCell id="8MrVoCjDA9bokPDS24iN-8" value="" style="ellipse;shape=endState;fillColor=strokeColor;" vertex="1" parent="1">
          <mxGeometry x="1466" y="655" width="14" height="14" as="geometry" />
        </mxCell>
        <mxCell id="8MrVoCjDA9bokPDS24iN-9" value="" style="ellipse;fillColor=strokeColor;" vertex="1" parent="1">
          <mxGeometry x="1173" y="372" width="14" height="14" as="geometry" />
        </mxCell>
        <mxCell id="8MrVoCjDA9bokPDS24iN-10" value="CheckSpecialMember" style="rounded=1;arcSize=40;strokeWidth=2" vertex="1" parent="1">
          <mxGeometry x="1096" y="479" width="168" height="35" as="geometry" />
        </mxCell>
        <mxCell id="8MrVoCjDA9bokPDS24iN-11" value="ApplySpecialMemberPrice" style="rounded=1;arcSize=40;strokeWidth=2" vertex="1" parent="1">
          <mxGeometry x="1112" y="645" width="200" height="35" as="geometry" />
        </mxCell>
        <mxCell id="8MrVoCjDA9bokPDS24iN-12" value="SalePricing" style="swimlane;fontStyle=1;align=center;verticalAlign=middle;startSize=25;container=0;collapsible=0;rounded=1;arcSize=14;dropTarget=0;" vertex="1" parent="1">
          <mxGeometry x="60" y="612" width="1017" height="1449" as="geometry" />
        </mxCell>
        <mxCell id="8MrVoCjDA9bokPDS24iN-13" value="DisplaySpecialBadge" style="rounded=1;arcSize=40;strokeWidth=2" vertex="1" parent="1">
          <mxGeometry x="1131" y="763" width="161" height="35" as="geometry" />
        </mxCell>
        <mxCell id="8MrVoCjDA9bokPDS24iN-14" value="" style="ellipse;shape=endState;fillColor=strokeColor;" vertex="1" parent="1">
          <mxGeometry x="1205" y="939" width="14" height="14" as="geometry" />
        </mxCell>
        <mxCell id="8MrVoCjDA9bokPDS24iN-15" value="" style="ellipse;fillColor=strokeColor;" vertex="1" parent="1">
          <mxGeometry x="872" y="655" width="14" height="14" as="geometry" />
        </mxCell>
        <mxCell id="8MrVoCjDA9bokPDS24iN-16" value="CheckSaleEligibility" style="rounded=1;arcSize=40;strokeWidth=2" vertex="1" parent="1">
          <mxGeometry x="801" y="763" width="156" height="35" as="geometry" />
        </mxCell>
        <mxCell id="8MrVoCjDA9bokPDS24iN-17" value="ApplySalePrice" style="rounded=1;arcSize=40;strokeWidth=2" vertex="1" parent="1">
          <mxGeometry x="903" y="929" width="122" height="35" as="geometry" />
        </mxCell>
        <mxCell id="8MrVoCjDA9bokPDS24iN-18" value="SpecialValuePricing" style="swimlane;fontStyle=1;align=center;verticalAlign=middle;startSize=25;container=0;collapsible=0;rounded=1;arcSize=14;dropTarget=0;" vertex="1" parent="1">
          <mxGeometry x="80" y="895" width="779" height="1140" as="geometry" />
        </mxCell>
        <mxCell id="8MrVoCjDA9bokPDS24iN-19" value="CalculateSavings" style="rounded=1;arcSize=40;strokeWidth=2" vertex="1" parent="1">
          <mxGeometry x="896" y="1046" width="135" height="35" as="geometry" />
        </mxCell>
        <mxCell id="8MrVoCjDA9bokPDS24iN-20" value="DisplaySaleBadge" style="rounded=1;arcSize=40;strokeWidth=2" vertex="1" parent="1">
          <mxGeometry x="894" y="1239" width="139" height="35" as="geometry" />
        </mxCell>
        <mxCell id="8MrVoCjDA9bokPDS24iN-21" value="" style="ellipse;shape=endState;fillColor=strokeColor;" vertex="1" parent="1">
          <mxGeometry x="957" y="1376" width="14" height="14" as="geometry" />
        </mxCell>
        <mxCell id="8MrVoCjDA9bokPDS24iN-22" value="" style="ellipse;fillColor=strokeColor;" vertex="1" parent="1">
          <mxGeometry x="600" y="939" width="14" height="14" as="geometry" />
        </mxCell>
        <mxCell id="8MrVoCjDA9bokPDS24iN-23" value="CheckSpecialValue" style="rounded=1;arcSize=40;strokeWidth=2" vertex="1" parent="1">
          <mxGeometry x="533" y="1046" width="149" height="35" as="geometry" />
        </mxCell>
        <mxCell id="8MrVoCjDA9bokPDS24iN-24" value="ApplySpecialValuePrice" style="rounded=1;arcSize=40;strokeWidth=2" vertex="1" parent="1">
          <mxGeometry x="633" y="1239" width="182" height="35" as="geometry" />
        </mxCell>
        <mxCell id="8MrVoCjDA9bokPDS24iN-25" value="GroupPricing" style="swimlane;fontStyle=1;align=center;verticalAlign=middle;startSize=25;container=0;collapsible=0;rounded=1;arcSize=14;dropTarget=0;" vertex="1" parent="1">
          <mxGeometry x="100" y="1196" width="490" height="814" as="geometry" />
        </mxCell>
        <mxCell id="8MrVoCjDA9bokPDS24iN-26" value="DisplaySpecialValueBadge" style="rounded=1;arcSize=40;strokeWidth=2" vertex="1" parent="1">
          <mxGeometry x="625" y="1365" width="200" height="35" as="geometry" />
        </mxCell>
        <mxCell id="8MrVoCjDA9bokPDS24iN-27" value="" style="ellipse;shape=endState;fillColor=strokeColor;" vertex="1" parent="1">
          <mxGeometry x="717" y="1690" width="14" height="14" as="geometry" />
        </mxCell>
        <mxCell id="8MrVoCjDA9bokPDS24iN-28" value="" style="ellipse;fillColor=strokeColor;" vertex="1" parent="1">
          <mxGeometry x="319" y="1249" width="14" height="14" as="geometry" />
        </mxCell>
        <mxCell id="8MrVoCjDA9bokPDS24iN-29" value="CheckGroupPricing" style="rounded=1;arcSize=40;strokeWidth=2" vertex="1" parent="1">
          <mxGeometry x="251" y="1365" width="151" height="35" as="geometry" />
        </mxCell>
        <mxCell id="8MrVoCjDA9bokPDS24iN-30" value="DisplayPriceRange" style="rounded=1;arcSize=40;strokeWidth=2" vertex="1" parent="1">
          <mxGeometry x="135" y="1680" width="146" height="35" as="geometry" />
        </mxCell>
        <mxCell id="8MrVoCjDA9bokPDS24iN-31" value="FinalPriceDisplay" style="swimlane;fontStyle=1;align=center;verticalAlign=middle;startSize=25;container=0;collapsible=0;rounded=1;arcSize=14;dropTarget=0;verticalAlign=top;" vertex="1" parent="1">
          <mxGeometry x="331" y="1498" width="224" height="399" as="geometry" />
        </mxCell>
        <mxCell id="8MrVoCjDA9bokPDS24iN-32" value="" style="ellipse;fillColor=strokeColor;" vertex="1" parent="8MrVoCjDA9bokPDS24iN-31">
          <mxGeometry x="113" y="46" width="14" height="14" as="geometry" />
        </mxCell>
        <mxCell id="8MrVoCjDA9bokPDS24iN-33" value="CalculateFinalPrice" style="rounded=1;arcSize=40;strokeWidth=2" vertex="1" parent="8MrVoCjDA9bokPDS24iN-31">
          <mxGeometry x="43" y="135" width="154" height="35" as="geometry" />
        </mxCell>
        <mxCell id="8MrVoCjDA9bokPDS24iN-34" value="DisplayPrice" style="rounded=1;arcSize=40;strokeWidth=2" vertex="1" parent="8MrVoCjDA9bokPDS24iN-31">
          <mxGeometry x="69" y="244" width="102" height="35" as="geometry" />
        </mxCell>
        <mxCell id="8MrVoCjDA9bokPDS24iN-35" value="" style="ellipse;shape=endState;fillColor=strokeColor;" vertex="1" parent="8MrVoCjDA9bokPDS24iN-31">
          <mxGeometry x="113" y="354" width="14" height="14" as="geometry" />
        </mxCell>
        <mxCell id="8MrVoCjDA9bokPDS24iN-36" value="" style="curved=1;startArrow=none;;exitX=0.5;exitY=0.96;entryX=0.5;entryY=-0.01;rounded=0;" edge="1" parent="8MrVoCjDA9bokPDS24iN-31" source="8MrVoCjDA9bokPDS24iN-32" target="8MrVoCjDA9bokPDS24iN-33">
          <mxGeometry relative="1" as="geometry">
            <Array as="points" />
          </mxGeometry>
        </mxCell>
        <mxCell id="8MrVoCjDA9bokPDS24iN-37" value="" style="curved=1;startArrow=none;;exitX=0.5;exitY=0.98;entryX=0.5;entryY=0;rounded=0;" edge="1" parent="8MrVoCjDA9bokPDS24iN-31" source="8MrVoCjDA9bokPDS24iN-33" target="8MrVoCjDA9bokPDS24iN-34">
          <mxGeometry relative="1" as="geometry">
            <Array as="points" />
          </mxGeometry>
        </mxCell>
        <mxCell id="8MrVoCjDA9bokPDS24iN-38" value="" style="curved=1;startArrow=none;;exitX=0.5;exitY=1;entryX=0.5;entryY=-0.01;rounded=0;" edge="1" parent="8MrVoCjDA9bokPDS24iN-31" source="8MrVoCjDA9bokPDS24iN-34" target="8MrVoCjDA9bokPDS24iN-35">
          <mxGeometry relative="1" as="geometry">
            <Array as="points" />
          </mxGeometry>
        </mxCell>
        <mxCell id="8MrVoCjDA9bokPDS24iN-39" value="" style="ellipse;shape=endState;fillColor=strokeColor;" vertex="1" parent="1">
          <mxGeometry x="201" y="1971" width="14" height="14" as="geometry" />
        </mxCell>
        <mxCell id="8MrVoCjDA9bokPDS24iN-40" value="Is it a clearance item?&#xa;      Lowest pricing priority" style="whiteSpace=wrap;strokeWidth=2;" vertex="1" parent="1">
          <mxGeometry x="1640" y="303" width="247" height="126" as="geometry" />
        </mxCell>
        <mxCell id="8MrVoCjDA9bokPDS24iN-41" value="Is it a clearance item?&#xa;      Lowest pricing priority" style="align=left;spacingLeft=4;" vertex="1" parent="1">
          <mxGeometry x="1675" y="353" width="177" height="51" as="geometry" />
        </mxCell>
        <mxCell id="8MrVoCjDA9bokPDS24iN-42" value="Special member discount&#xa;      Greater than zero" style="whiteSpace=wrap;strokeWidth=2;" vertex="1" parent="1">
          <mxGeometry x="1631" y="587" width="265" height="126" as="geometry" />
        </mxCell>
        <mxCell id="8MrVoCjDA9bokPDS24iN-43" value="Special member discount&#xa;      Greater than zero" style="align=left;spacingLeft=4;" vertex="1" parent="1">
          <mxGeometry x="1666" y="637" width="195" height="51" as="geometry" />
        </mxCell>
        <mxCell id="8MrVoCjDA9bokPDS24iN-44" value="Sale price less than retail&#xa;      Min 5% discount" style="whiteSpace=wrap;strokeWidth=2;" vertex="1" parent="1">
          <mxGeometry x="1629" y="870" width="268" height="126" as="geometry" />
        </mxCell>
        <mxCell id="8MrVoCjDA9bokPDS24iN-45" value="Sale price less than retail&#xa;      Min 5% discount" style="align=left;spacingLeft=4;" vertex="1" parent="1">
          <mxGeometry x="1664" y="920" width="198" height="51" as="geometry" />
        </mxCell>
        <mxCell id="8MrVoCjDA9bokPDS24iN-46" value="No compare price&#xa;      &quot;Special Value&quot; badge" style="whiteSpace=wrap;strokeWidth=2;" vertex="1" parent="1">
          <mxGeometry x="1624" y="1171" width="279" height="144" as="geometry" />
        </mxCell>
        <mxCell id="8MrVoCjDA9bokPDS24iN-47" value="No compare price&#xa;      &quot;Special Value&quot; badge" style="align=left;spacingLeft=4;" vertex="1" parent="1">
          <mxGeometry x="1659" y="1221" width="209" height="69" as="geometry" />
        </mxCell>
        <mxCell id="8MrVoCjDA9bokPDS24iN-48" value="Multiple product variations&#xa;      Price range display" style="whiteSpace=wrap;strokeWidth=2;" vertex="1" parent="1">
          <mxGeometry x="1624" y="1473" width="279" height="449" as="geometry" />
        </mxCell>
        <mxCell id="8MrVoCjDA9bokPDS24iN-49" value="Multiple product variations&#xa;      Price range display" style="align=left;spacingLeft=4;" vertex="1" parent="1">
          <mxGeometry x="1659" y="1671" width="209" height="51" as="geometry" />
        </mxCell>
        <mxCell id="8MrVoCjDA9bokPDS24iN-50" value="" style="curved=1;startArrow=none;;exitX=0.5;exitY=0.98;entryX=0.5;entryY=-0.01;rounded=0;" edge="1" parent="1" source="8MrVoCjDA9bokPDS24iN-3" target="8MrVoCjDA9bokPDS24iN-4">
          <mxGeometry relative="1" as="geometry">
            <Array as="points" />
          </mxGeometry>
        </mxCell>
        <mxCell id="8MrVoCjDA9bokPDS24iN-51" value="Meets Clearance Criteria" style="curved=1;startArrow=none;;exitX=0.5;exitY=0.98;entryX=0.5;entryY=0.01;rounded=0;" edge="1" parent="1" source="8MrVoCjDA9bokPDS24iN-4" target="8MrVoCjDA9bokPDS24iN-5">
          <mxGeometry relative="1" as="geometry">
            <Array as="points">
              <mxPoint x="1473" y="267" />
            </Array>
          </mxGeometry>
        </mxCell>
        <mxCell id="8MrVoCjDA9bokPDS24iN-52" value="" style="curved=1;startArrow=none;;exitX=0.5;exitY=1;entryX=0.5;entryY=0.01;rounded=0;" edge="1" parent="1" source="8MrVoCjDA9bokPDS24iN-5" target="8MrVoCjDA9bokPDS24iN-7">
          <mxGeometry relative="1" as="geometry">
            <Array as="points" />
          </mxGeometry>
        </mxCell>
        <mxCell id="8MrVoCjDA9bokPDS24iN-53" value="" style="curved=1;startArrow=none;;exitX=0.5;exitY=1;entryX=0.48;entryY=0.02;rounded=0;" edge="1" parent="1" source="8MrVoCjDA9bokPDS24iN-7" target="8MrVoCjDA9bokPDS24iN-8">
          <mxGeometry relative="1" as="geometry">
            <Array as="points" />
          </mxGeometry>
        </mxCell>
        <mxCell id="8MrVoCjDA9bokPDS24iN-54" value="" style="curved=1;startArrow=none;;exitX=0.49;exitY=0.97;entryX=0.5;entryY=0.01;rounded=0;" edge="1" parent="1" source="8MrVoCjDA9bokPDS24iN-9" target="8MrVoCjDA9bokPDS24iN-10">
          <mxGeometry relative="1" as="geometry">
            <Array as="points" />
          </mxGeometry>
        </mxCell>
        <mxCell id="8MrVoCjDA9bokPDS24iN-55" value="Special Discount &gt; 0" style="curved=1;startArrow=none;;exitX=0.56;exitY=1;entryX=0.5;entryY=0;rounded=0;" edge="1" parent="1" source="8MrVoCjDA9bokPDS24iN-10" target="8MrVoCjDA9bokPDS24iN-11">
          <mxGeometry relative="1" as="geometry">
            <Array as="points">
              <mxPoint x="1212" y="550" />
            </Array>
          </mxGeometry>
        </mxCell>
        <mxCell id="8MrVoCjDA9bokPDS24iN-56" value="" style="curved=1;startArrow=none;;exitX=0.5;exitY=0.99;entryX=0.5;entryY=0;rounded=0;" edge="1" parent="1" source="8MrVoCjDA9bokPDS24iN-11" target="8MrVoCjDA9bokPDS24iN-13">
          <mxGeometry relative="1" as="geometry">
            <Array as="points" />
          </mxGeometry>
        </mxCell>
        <mxCell id="8MrVoCjDA9bokPDS24iN-57" value="" style="curved=1;startArrow=none;;exitX=0.5;exitY=0.99;entryX=0.49;entryY=-0.01;rounded=0;" edge="1" parent="1" source="8MrVoCjDA9bokPDS24iN-13" target="8MrVoCjDA9bokPDS24iN-14">
          <mxGeometry relative="1" as="geometry">
            <Array as="points" />
          </mxGeometry>
        </mxCell>
        <mxCell id="8MrVoCjDA9bokPDS24iN-58" value="" style="curved=1;startArrow=none;;exitX=0.5;exitY=1.02;entryX=0.5;entryY=0;rounded=0;" edge="1" parent="1" source="8MrVoCjDA9bokPDS24iN-15" target="8MrVoCjDA9bokPDS24iN-16">
          <mxGeometry relative="1" as="geometry">
            <Array as="points" />
          </mxGeometry>
        </mxCell>
        <mxCell id="8MrVoCjDA9bokPDS24iN-59" value="Meets Sale Criteria" style="curved=1;startArrow=none;;exitX=0.68;exitY=0.99;entryX=0.5;entryY=-0.01;rounded=0;" edge="1" parent="1" source="8MrVoCjDA9bokPDS24iN-16" target="8MrVoCjDA9bokPDS24iN-17">
          <mxGeometry relative="1" as="geometry">
            <Array as="points">
              <mxPoint x="964" y="834" />
            </Array>
          </mxGeometry>
        </mxCell>
        <mxCell id="8MrVoCjDA9bokPDS24iN-60" value="" style="curved=1;startArrow=none;;exitX=0.5;exitY=0.98;entryX=0.5;entryY=0.01;rounded=0;" edge="1" parent="1" source="8MrVoCjDA9bokPDS24iN-17" target="8MrVoCjDA9bokPDS24iN-19">
          <mxGeometry relative="1" as="geometry">
            <Array as="points" />
          </mxGeometry>
        </mxCell>
        <mxCell id="8MrVoCjDA9bokPDS24iN-61" value="" style="curved=1;startArrow=none;;exitX=0.5;exitY=1;entryX=0.5;entryY=-0.01;rounded=0;" edge="1" parent="1" source="8MrVoCjDA9bokPDS24iN-19" target="8MrVoCjDA9bokPDS24iN-20">
          <mxGeometry relative="1" as="geometry">
            <Array as="points" />
          </mxGeometry>
        </mxCell>
        <mxCell id="8MrVoCjDA9bokPDS24iN-62" value="" style="curved=1;startArrow=none;;exitX=0.5;exitY=0.98;entryX=0.49;entryY=-0.03;rounded=0;" edge="1" parent="1" source="8MrVoCjDA9bokPDS24iN-20" target="8MrVoCjDA9bokPDS24iN-21">
          <mxGeometry relative="1" as="geometry">
            <Array as="points" />
          </mxGeometry>
        </mxCell>
        <mxCell id="8MrVoCjDA9bokPDS24iN-63" value="" style="curved=1;startArrow=none;;exitX=0.51;exitY=0.99;entryX=0.5;entryY=0.01;rounded=0;" edge="1" parent="1" source="8MrVoCjDA9bokPDS24iN-22" target="8MrVoCjDA9bokPDS24iN-23">
          <mxGeometry relative="1" as="geometry">
            <Array as="points" />
          </mxGeometry>
        </mxCell>
        <mxCell id="8MrVoCjDA9bokPDS24iN-64" value="Special Value Conditions Met" style="curved=1;startArrow=none;;exitX=0.72;exitY=1;entryX=0.5;entryY=-0.01;rounded=0;" edge="1" parent="1" source="8MrVoCjDA9bokPDS24iN-23" target="8MrVoCjDA9bokPDS24iN-24">
          <mxGeometry relative="1" as="geometry">
            <Array as="points">
              <mxPoint x="724" y="1126" />
            </Array>
          </mxGeometry>
        </mxCell>
        <mxCell id="8MrVoCjDA9bokPDS24iN-65" value="" style="curved=1;startArrow=none;;exitX=0.5;exitY=0.98;entryX=0.5;entryY=0.01;rounded=0;" edge="1" parent="1" source="8MrVoCjDA9bokPDS24iN-24" target="8MrVoCjDA9bokPDS24iN-26">
          <mxGeometry relative="1" as="geometry">
            <Array as="points" />
          </mxGeometry>
        </mxCell>
        <mxCell id="8MrVoCjDA9bokPDS24iN-66" value="" style="curved=1;startArrow=none;;exitX=0.5;exitY=1;entryX=0.53;entryY=0;rounded=0;" edge="1" parent="1" source="8MrVoCjDA9bokPDS24iN-26" target="8MrVoCjDA9bokPDS24iN-27">
          <mxGeometry relative="1" as="geometry">
            <Array as="points" />
          </mxGeometry>
        </mxCell>
        <mxCell id="8MrVoCjDA9bokPDS24iN-67" value="" style="curved=1;startArrow=none;;exitX=0.53;exitY=0.99;entryX=0.5;entryY=0.01;rounded=0;" edge="1" parent="1" source="8MrVoCjDA9bokPDS24iN-28" target="8MrVoCjDA9bokPDS24iN-29">
          <mxGeometry relative="1" as="geometry">
            <Array as="points" />
          </mxGeometry>
        </mxCell>
        <mxCell id="8MrVoCjDA9bokPDS24iN-68" value="Group Price Available" style="curved=1;startArrow=none;;exitX=0.25;exitY=1;entryX=0.5;entryY=-0.01;rounded=0;" edge="1" parent="1" source="8MrVoCjDA9bokPDS24iN-29" target="8MrVoCjDA9bokPDS24iN-30">
          <mxGeometry relative="1" as="geometry">
            <Array as="points">
              <mxPoint x="208" y="1436" />
            </Array>
          </mxGeometry>
        </mxCell>
        <mxCell id="8MrVoCjDA9bokPDS24iN-69" value="" style="curved=1;startArrow=none;;exitX=0.5;exitY=0.98;entryX=0.49;entryY=0.02;rounded=0;" edge="1" parent="1" source="8MrVoCjDA9bokPDS24iN-30" target="8MrVoCjDA9bokPDS24iN-39">
          <mxGeometry relative="1" as="geometry">
            <Array as="points" />
          </mxGeometry>
        </mxCell>
        <mxCell id="8MrVoCjDA9bokPDS24iN-70" value="" style="curved=1;dashed=1;startArrow=none;;exitX=0.77;exitY=0.98;entryX=0;entryY=0.01;rounded=0;" edge="1" parent="1" source="8MrVoCjDA9bokPDS24iN-4" target="8MrVoCjDA9bokPDS24iN-41">
          <mxGeometry relative="1" as="geometry">
            <Array as="points">
              <mxPoint x="1584" y="267" />
              <mxPoint x="1584" y="328" />
            </Array>
          </mxGeometry>
        </mxCell>
        <mxCell id="8MrVoCjDA9bokPDS24iN-71" value="" style="curved=1;dashed=1;startArrow=none;;exitX=0.77;exitY=1;entryX=0;entryY=0.28;rounded=0;" edge="1" parent="1" source="8MrVoCjDA9bokPDS24iN-10" target="8MrVoCjDA9bokPDS24iN-43">
          <mxGeometry relative="1" as="geometry">
            <Array as="points">
              <mxPoint x="1322" y="550" />
              <mxPoint x="1322" y="612" />
            </Array>
          </mxGeometry>
        </mxCell>
        <mxCell id="8MrVoCjDA9bokPDS24iN-72" value="" style="curved=1;dashed=1;startArrow=none;;exitX=0.86;exitY=0.99;entryX=0;entryY=0.37;rounded=0;" edge="1" parent="1" source="8MrVoCjDA9bokPDS24iN-16" target="8MrVoCjDA9bokPDS24iN-45">
          <mxGeometry relative="1" as="geometry">
            <Array as="points">
              <mxPoint x="1055" y="834" />
              <mxPoint x="1055" y="895" />
            </Array>
          </mxGeometry>
        </mxCell>
        <mxCell id="8MrVoCjDA9bokPDS24iN-73" value="" style="curved=1;dashed=1;startArrow=none;;exitX=0.92;exitY=1;entryX=0;entryY=0.41;rounded=0;" edge="1" parent="1" source="8MrVoCjDA9bokPDS24iN-23" target="8MrVoCjDA9bokPDS24iN-47">
          <mxGeometry relative="1" as="geometry">
            <Array as="points">
              <mxPoint x="837" y="1126" />
              <mxPoint x="837" y="1196" />
            </Array>
          </mxGeometry>
        </mxCell>
        <mxCell id="8MrVoCjDA9bokPDS24iN-74" value="" style="curved=1;dashed=1;startArrow=none;;exitX=0.97;exitY=1;entryX=0;entryY=0.13;rounded=0;" edge="1" parent="1" source="8MrVoCjDA9bokPDS24iN-29" target="8MrVoCjDA9bokPDS24iN-49">
          <mxGeometry relative="1" as="geometry">
            <Array as="points">
              <mxPoint x="547" y="1436" />
              <mxPoint x="547" y="1473" />
            </Array>
          </mxGeometry>
        </mxCell>
        <mxCell id="8MrVoCjDA9bokPDS24iN-75" value="Product Entered" style="curved=1;startArrow=none;;rounded=0;" edge="1" parent="1" source="8MrVoCjDA9bokPDS24iN-1" target="8MrVoCjDA9bokPDS24iN-2">
          <mxGeometry relative="1" as="geometry">
            <Array as="points" />
          </mxGeometry>
        </mxCell>
        <mxCell id="8MrVoCjDA9bokPDS24iN-76" value="No Clearance" style="curved=1;startArrow=none;;rounded=0;" edge="1" parent="1" source="8MrVoCjDA9bokPDS24iN-4" target="8MrVoCjDA9bokPDS24iN-6">
          <mxGeometry relative="1" as="geometry">
            <Array as="points" />
          </mxGeometry>
        </mxCell>
        <mxCell id="8MrVoCjDA9bokPDS24iN-77" value="No Special Member Price" style="curved=1;startArrow=none;;rounded=0;" edge="1" parent="1" source="8MrVoCjDA9bokPDS24iN-10" target="8MrVoCjDA9bokPDS24iN-12">
          <mxGeometry relative="1" as="geometry">
            <Array as="points" />
          </mxGeometry>
        </mxCell>
        <mxCell id="8MrVoCjDA9bokPDS24iN-78" value="No Sale Price" style="curved=1;startArrow=none;;rounded=0;" edge="1" parent="1" source="8MrVoCjDA9bokPDS24iN-16" target="8MrVoCjDA9bokPDS24iN-18">
          <mxGeometry relative="1" as="geometry">
            <Array as="points" />
          </mxGeometry>
        </mxCell>
        <mxCell id="8MrVoCjDA9bokPDS24iN-79" value="No Special Value" style="curved=1;startArrow=none;;rounded=0;" edge="1" parent="1" source="8MrVoCjDA9bokPDS24iN-23" target="8MrVoCjDA9bokPDS24iN-25">
          <mxGeometry relative="1" as="geometry">
            <Array as="points" />
          </mxGeometry>
        </mxCell>
        <mxCell id="8MrVoCjDA9bokPDS24iN-80" value="No Group Pricing" style="curved=1;startArrow=none;;exitX=0.75;exitY=1;entryX=0.5;entryY=0;rounded=0;" edge="1" parent="1" source="8MrVoCjDA9bokPDS24iN-29" target="8MrVoCjDA9bokPDS24iN-31">
          <mxGeometry relative="1" as="geometry">
            <Array as="points">
              <mxPoint x="443" y="1436" />
            </Array>
          </mxGeometry>
        </mxCell>
      </root>
    </mxGraphModel>
  </diagram>
</mxfile>
